<svg width="24" height="25" viewBox="0 0 24 25" fill="none" xmlns="http://www.w3.org/2000/svg">
<path fill-rule="evenodd" clip-rule="evenodd" d="M11 4V7.59459C11 7.97297 11 8.35135 11 8.72973C10.8108 9.2973 10.6216 9.86486 10.2432 10.2432C9.86486 10.6216 9.2973 10.8108 8.72973 11C8.54054 11 8.16216 11 7.78378 11H4V6.64865C4 5.32432 5.13513 4.18919 6.45946 4.18919H11V4Z" fill="#FBB03A"/>
<path fill-rule="evenodd" clip-rule="evenodd" d="M11.2 15.8004C11.2 16.2004 11.2 16.6004 11.2 17.0004V20.8004H6.6C5.2 20.8004 4 19.6004 4 18.2004V13.4004H7.8C8.2 13.4004 8.6 13.4004 9 13.4004C9.6 13.6004 10 13.8004 10.4 14.2004C10.8 14.6004 11 15.2004 11.2 15.8004Z" fill="#FBB03A"/>
<path fill-rule="evenodd" clip-rule="evenodd" d="M20 6.64865V11H16.4054C15.8378 11 15.4595 11 15.2703 11C14.7027 10.8108 14.1351 10.6216 13.7568 10.2432C13.3784 9.86486 13.1892 9.2973 13 8.72973C13 8.35135 13 7.97297 13 7.59459V4H17.3514C18.8649 4 20 5.13513 20 6.64865Z" fill="#FBB03A"/>
<path fill-rule="evenodd" clip-rule="evenodd" d="M20 13V18.1111C20 19.6667 18.8649 21 17.5405 21H13V17C13 16.5556 13 16.1111 13 15.6667C13.1892 15 13.3784 14.5556 13.7568 14.1111C14.1351 13.4444 14.7027 13.2222 15.2703 13C15.6486 13 16.027 13 16.4054 13H20Z" fill="#FBB03A"/>
<rect x="0.568182" y="0.568182" width="10.2273" height="10.2273" rx="1.70455" stroke="black" stroke-width="1.13636"/>
<rect x="13.2049" y="0.568182" width="10.2273" height="10.2273" rx="1.70455" stroke="black" stroke-width="1.13636"/>
<rect x="0.568182" y="13.5682" width="10.2273" height="10.2273" rx="1.70455" stroke="black" stroke-width="1.13636"/>
<rect x="13.2049" y="13.5682" width="10.2273" height="10.2273" rx="1.70455" stroke="black" stroke-width="1.13636"/>
</svg>
