<svg width="36" height="36" viewBox="0 0 36 36" fill="none" xmlns="http://www.w3.org/2000/svg">
<g clip-path="url(#clip0_1189_18522)">
<path d="M4.49987 8.99854H23.9999C24.8249 8.99854 25.4999 8.32354 25.4999 7.49854C25.4999 6.67354 24.8249 5.99854 23.9999 5.99854H4.49987C3.67487 5.99854 2.99987 6.67354 2.99987 7.49854C2.99987 8.32354 3.67487 8.99854 4.49987 8.99854ZM22.4999 25.4985H25.4999V20.9985H25.7699C26.7149 20.9985 27.4199 20.1285 27.2399 19.1985L25.7399 11.6985C25.6049 11.0085 24.9899 10.4985 24.2699 10.4985H4.22987C3.50987 10.4985 2.89487 11.0085 2.75987 11.6985L1.25987 19.1985C1.07987 20.1285 1.78487 20.9985 2.72987 20.9985H2.99987V28.4985C2.99987 29.3235 3.67487 29.9985 4.49987 29.9985H14.9999C15.8249 29.9985 16.4999 29.3235 16.4999 28.4985V20.9985H22.4999V25.4985ZM13.4999 26.9985H5.99987V20.9985H13.4999V26.9985Z" fill="#F6B229"/>
<mask id="mask0_1189_18522" style="mask-type:alpha" maskUnits="userSpaceOnUse" x="9" y="-5" width="41" height="41">
<circle cx="29.25" cy="15.75" r="20.25" fill="black"/>
</mask>
<g mask="url(#mask0_1189_18522)">
<path d="M4.49987 8.99854H23.9999C24.8249 8.99854 25.4999 8.32354 25.4999 7.49854C25.4999 6.67354 24.8249 5.99854 23.9999 5.99854H4.49987C3.67487 5.99854 2.99987 6.67354 2.99987 7.49854C2.99987 8.32354 3.67487 8.99854 4.49987 8.99854ZM22.4999 25.4985H25.4999V20.9985H25.7699C26.7149 20.9985 27.4199 20.1285 27.2399 19.1985L25.7399 11.6985C25.6049 11.0085 24.9899 10.4985 24.2699 10.4985H4.22987C3.50987 10.4985 2.89487 11.0085 2.75987 11.6985L1.25987 19.1985C1.07987 20.1285 1.78487 20.9985 2.72987 20.9985H2.99987V28.4985C2.99987 29.3235 3.67487 29.9985 4.49987 29.9985H14.9999C15.8249 29.9985 16.4999 29.3235 16.4999 28.4985V20.9985H22.4999V25.4985ZM13.4999 26.9985H5.99987V20.9985H13.4999V26.9985Z" fill="#F98105"/>
<path d="M33 27H30V24C30 23.175 29.325 22.5 28.5 22.5C27.675 22.5 27 23.175 27 24V27H24C23.175 27 22.5 27.675 22.5 28.5C22.5 29.325 23.175 30 24 30H27V33C27 33.825 27.675 34.5 28.5 34.5C29.325 34.5 30 33.825 30 33V30H33C33.825 30 34.5 29.325 34.5 28.5C34.5 27.675 33.825 27 33 27Z" fill="#F6B229"/>
</g>
</g>
<defs>
<clipPath id="clip0_1189_18522">
<rect width="36" height="36" fill="white"/>
</clipPath>
</defs>
</svg>
