<svg width="176" height="47" viewBox="0 0 176 47" fill="none" xmlns="http://www.w3.org/2000/svg">
<path fill-rule="evenodd" clip-rule="evenodd" d="M0 22.1874L0.433621 27.5282C0.855737 29.7853 1.68672 31.8805 2.65746 33.8285C3.9192 36.3606 5.8091 38.6467 7.94678 40.4547C8.10792 40.591 8.16702 40.6774 8.3272 40.8075C8.59682 41.0266 8.8129 41.1959 9.10037 41.4092C13.2308 44.475 17.4114 46.11 23.0977 46.11C24.0807 46.11 25.2503 46.0711 26.0975 45.9018L28.2048 45.5344C28.4186 45.4914 28.5767 45.4234 28.8525 45.3571L31.347 44.552C33.0484 43.875 34.7121 43.0664 36.1908 41.9716C37.4273 41.0562 38.7602 40.1206 39.7523 38.9337C39.9342 38.7161 41.0697 37.6776 40.4209 37.6776H33.8215C33.2042 37.6776 32.2379 38.4699 31.6421 38.7978C29.8732 39.7716 27.9929 40.3901 25.9913 40.7545C24.5099 41.0242 21.8525 41.1443 20.4006 40.8329C20.0502 40.7577 19.9328 40.7466 19.5487 40.6766C19.3108 40.6332 19.0156 40.5363 18.6585 40.4669C18.291 40.3955 18.1537 40.3374 17.8642 40.253C17.7533 40.2206 17.7566 40.2259 17.652 40.1902L16.3011 39.7079C14.1218 38.7935 12.2333 37.4636 10.4758 35.9092L10.1735 35.5699C8.90579 34.0314 8.70952 34.1579 7.52927 32.0731C6.7997 30.7844 6.1592 29.4302 5.77441 27.9619C4.57441 23.383 5.02447 19.3383 6.95427 15.1182C7.41809 14.1039 7.99993 13.3309 8.59761 12.4536C9.2216 11.5377 9.84162 10.9253 10.6093 10.1574C13.7841 6.98177 18.4348 5.13914 22.9143 5.13914C24.5679 5.13914 25.8908 5.34281 27.4156 5.679C27.7317 5.74865 27.7482 5.77969 27.9832 5.84468L30.1536 6.60731C30.7747 6.86543 31.531 7.27609 32.0855 7.60841C34.3468 8.96366 32.9867 8.53043 36.7546 8.53043C37.7327 8.53043 38.7109 8.53189 39.689 8.52936C40.2107 8.52802 40.8167 8.71906 40.7396 8.39758C40.6145 7.87663 37.5274 5.16916 37.0697 4.82405C35.9265 3.96197 34.7249 3.24318 33.484 2.54369C32.188 1.81317 30.766 1.33005 29.342 0.911246C27.7211 0.434521 26.0012 0.0994547 24.2862 0.10097C23.7178 0.101475 23.5712 0 23.0061 0C21.9154 0 20.0071 0.224612 18.9753 0.375083C17.7744 0.550137 16.6363 0.926567 15.5023 1.30171C12.8975 2.16334 10.394 3.60799 8.29818 5.37144L7.71482 5.88796C7.70056 5.90042 7.67985 5.91793 7.66549 5.93027C7.65112 5.94262 7.63046 5.96019 7.61598 5.97242C7.6015 5.98471 7.58074 6.00206 7.5662 6.01429C7.55166 6.02647 7.5305 6.04348 7.51591 6.05566C7.50132 6.06784 7.48016 6.08478 7.46557 6.09696C7.45103 6.10914 7.43021 6.12649 7.41567 6.13872L6.09073 7.4718C5.00118 8.77519 4.37415 9.5304 3.40925 11.023C3.21298 11.3267 3.03697 11.6218 2.86057 11.9409C1.60989 14.2027 0.535432 16.9563 0.267828 19.522C0.176513 20.3978 5.61797e-05 21.2103 5.61797e-05 22.1873L0 22.1874Z" fill="#F7B229"/>
<path fill-rule="evenodd" clip-rule="evenodd" d="M27.2222 28.1441C25.7371 28.1441 19.3749 28.2742 18.4231 28.0525V24.8445H27.2222C28.2035 24.8445 29.422 25.2411 29.422 26.2193C29.422 26.9154 29.4086 27.6127 28.4319 27.979L27.2222 28.1441H27.2222ZM27.4055 21.2698H18.4231V18.5201C18.4231 18.3089 18.4869 18.2451 18.6981 18.2451H28.0472C29.5707 18.2451 30.1668 21.2698 27.4056 21.2698H27.4055ZM14.3902 33.0936H28.6887C29.6164 33.0936 30.603 32.943 31.3273 32.7075C33.2003 32.0985 34.4393 30.6025 34.9844 28.757C35.656 26.4831 34.4254 23.46 33.0883 23.1029C33.1954 22.7015 33.4897 22.8324 34.2451 21.6934C35.3069 20.0926 35.0936 17.7117 34.2341 16.091C33.1725 14.0891 31.0295 13.1123 28.7804 13.1123H14.2069C13.1532 13.1123 12.9127 13.8383 12.9209 14.6677C12.9436 16.9614 12.8435 31.7505 12.9556 32.1451C12.9621 32.1681 12.9717 32.1911 12.9798 32.2126L13.0403 32.3354C13.0498 32.3533 13.0646 32.3753 13.0747 32.3926C13.3148 32.8021 13.7103 33.0936 14.3902 33.0936Z" fill="#F7B229"/>
<path fill-rule="evenodd" clip-rule="evenodd" d="M122.362 19.0701C122.362 19.81 122.672 21.0164 122.925 21.5323C123.388 22.4784 124.086 23.425 124.981 23.9675C125.138 24.0628 125.271 24.169 125.425 24.2567C126.062 24.6195 126.976 24.8807 127.7 25.0058C127.958 25.0504 128.238 25.0299 128.503 25.0284L137.566 25.0389C137.916 25.0753 138.445 25.1923 138.698 25.374C139.269 25.7856 139.46 26.7481 138.866 27.4164C138.229 28.1328 135.925 27.8691 134.736 27.8691C133.613 27.8691 123.231 27.8048 123.046 27.9118C122.83 28.0363 123.007 28.2017 123.004 29.1521L123.005 32.0883C123.003 32.5927 122.787 33.0937 123.279 33.0937H138.219C140.53 33.0937 142.245 32.4555 143.691 30.6832L144.518 29.2186C145.114 27.6389 145.105 26.0816 144.362 24.5681C144.104 24.0444 143.846 23.6002 143.466 23.1722C141.494 20.9532 139.304 21.0865 136.386 21.0865L129.507 21.0915C127.662 21.0851 127.7 18.5992 129.231 18.5145L143.172 18.5233C143.58 18.53 143.994 18.6316 143.994 18.2451V13.1123H128.962C126.855 13.1123 125.337 13.7232 124.25 14.8165L123.593 15.534C122.907 16.5306 122.362 17.8498 122.362 19.0701H122.362Z" fill="#F7B229"/>
<path fill-rule="evenodd" clip-rule="evenodd" d="M50.3194 18.9785C50.3194 20.9381 51.2683 22.8101 52.8047 23.9174L53.8027 24.4776C54.4008 24.7465 55.4007 25.0347 56.2749 25.03C58.304 25.0193 63.3897 24.9344 65.2602 25.0271C66.8249 25.1047 67.0927 25.5678 67.0927 26.7694C67.0927 28.1748 64.5529 27.8692 63.793 27.8692L51.691 27.8661C51.283 27.8594 50.8693 27.7578 50.8693 28.1442V32.8187C50.8693 33.0299 50.9331 33.0937 51.1443 33.0937H66.1761C68.3003 33.0937 69.6789 32.5036 70.8453 31.5302C71.5407 30.9498 72.0693 30.1235 72.4291 29.2644C73.0409 27.8038 73.019 26.2129 72.3983 24.7634L71.9525 23.9259C71.6796 23.4946 71.2652 22.9791 70.8594 22.6359C70.8449 22.6237 70.8242 22.6062 70.8097 22.594L70.0231 22.0057C69.2047 21.5358 67.9212 21.1286 67.0026 21.0849C65.0792 20.9933 57.3876 21.2779 56.7577 20.9725C55.7473 20.4826 55.8606 19.0912 56.7461 18.6225C57.1985 18.383 68.6899 18.5078 70.8509 18.5204C71.3001 18.523 71.9505 18.6629 71.9505 18.2452V13.1123H56.9187C53.716 13.1123 51.4336 14.5775 50.5314 17.6322C50.447 17.9179 50.3193 18.6672 50.3193 18.9784L50.3194 18.9785Z" fill="#F7B229"/>
<path fill-rule="evenodd" clip-rule="evenodd" d="M78.9173 33.0032C79.6569 33.1755 83.5854 33.1755 84.3251 33.0032V20.6294C84.3249 20.1901 84.1982 19.0713 84.6 19.0713C85.1699 19.0713 85.3532 19.5344 85.6357 19.8687C85.928 20.2147 86.1956 20.5069 86.5026 20.8349C86.7981 21.1506 87.0377 21.5168 87.3277 21.843C87.5013 22.0382 87.5965 22.0945 87.7694 22.318C88.7637 23.6032 90.8653 25.8124 92.0107 27.2424C92.6343 28.0209 96.2275 32.1682 96.7629 32.5724C97.1319 32.851 97.511 33.0439 97.9805 33.1881C98.8217 33.4463 99.9419 33.5574 100.842 33.3879C101.116 33.3363 101 33.3699 101.205 33.2931C102.821 32.6887 103.757 31.3349 103.757 29.5202V13.1135H98.4404V26.3121C98.1724 26.3763 98.3084 26.3004 98.1654 26.4955C97.9796 26.4522 98.026 26.4721 97.8873 26.4069C97.8691 26.3984 97.8436 26.3868 97.8257 26.3769C97.8082 26.3673 97.7848 26.3536 97.7682 26.3427C97.6501 26.2655 97.6913 26.2849 97.6208 26.2152L92.4038 19.975C92.1215 19.6263 91.8338 19.3241 91.566 18.9796L87.9675 14.6956C87.6658 14.3854 87.7766 14.3727 87.3599 14.02C87.3454 14.0077 87.3243 13.9908 87.3097 13.9786C86.1184 12.9817 85.3305 12.6553 83.5002 12.6553C82.4593 12.6553 81.6658 12.8575 80.9632 13.2346C79.3766 14.0863 79.0123 15.6526 78.9169 17.421C78.8642 18.3973 78.9173 19.5426 78.9173 20.5378C78.9173 24.6929 78.9173 28.848 78.9173 33.0032H78.9173Z" fill="#F7B229"/>
<path fill-rule="evenodd" clip-rule="evenodd" d="M165.533 27.6863H160.95C159.088 27.6863 157.5 26.8301 156.66 25.3769C156.147 24.49 155.897 23.0564 156.182 22.0938C156.32 21.6297 156.317 21.4968 156.596 20.9489C157.05 20.0562 157.767 19.3773 158.659 18.9791C158.975 18.8378 159.793 18.5205 160.217 18.5205H166.358C167.679 18.5205 169.514 19.7043 170.126 21.1682C170.659 22.441 170.794 23.8077 170.111 25.1151C169.165 26.9259 167.59 27.6863 165.533 27.6863H165.533ZM150.593 23.0118C150.593 27.1631 153.014 30.7649 156.943 32.3355C159.354 33.2996 162.477 33.0941 165.166 33.0941C169.646 33.0941 173.054 31.2162 174.896 27.7001C176.232 25.1495 176.389 21.8131 175.182 19.1368C173.534 15.4818 170.392 13.1128 165.808 13.1128C163.488 13.1128 159.186 12.8521 157.086 13.7398C155.173 14.5481 154.325 15.1376 153.044 16.5722L151.971 18.0658C151.905 18.1746 151.804 18.3449 151.739 18.4754C151.038 19.8934 150.593 21.3584 150.593 23.0118L150.593 23.0118Z" fill="#F7B229"/>
<path fill-rule="evenodd" clip-rule="evenodd" d="M110.722 32.8196C110.722 33.0308 110.786 33.0946 110.997 33.0946H115.855C116.066 33.0946 116.129 33.0308 116.129 32.8196V13.1133H110.722V32.8196H110.722Z" fill="#F7B229"/>
<path fill-rule="evenodd" clip-rule="evenodd" d="M40.971 23.1037C40.971 23.7415 40.8819 24.0265 40.8778 24.5687C40.8725 25.2732 40.7763 25.4675 40.7007 26.0414L40.056 28.6964C39.9012 29.113 39.7637 29.5188 39.6102 29.9004C39.4444 30.3125 39.2958 30.6296 39.0993 31.0394C38.9869 31.2739 38.9442 31.3424 38.8161 31.5812C38.5124 32.1472 37.9797 32.7849 37.9463 33.186H43.7207C43.8724 32.8995 44.0351 32.5302 44.162 32.2525C44.3082 31.9324 44.4403 31.6131 44.569 31.2846C44.6052 31.1923 44.6047 31.1801 44.6409 31.0815L45.745 26.9612C45.8317 26.1231 46.0122 25.5854 46.0122 24.4787C46.0122 21.4552 46.0612 19.8116 45.2402 16.9098L43.9226 13.3695C43.8335 13.1793 43.8087 13.0215 43.5373 13.0215H38.2212C37.7455 13.0215 38.1061 13.363 38.4335 13.9091C39.3617 15.4574 40.5021 18.195 40.6888 19.9947C40.7923 20.9934 40.9709 21.8427 40.9709 23.1038L40.971 23.1037Z" fill="#F7B229"/>
</svg>
