<svg width="45" height="45" viewBox="0 0 45 45" fill="none" xmlns="http://www.w3.org/2000/svg">
<path d="M5.20383 0H15.5384C18.4077 0 20.7422 2.33446 20.7422 5.20383V15.5384C20.7422 18.4077 21.0577 20.7422 18.75 20.7422H5.20383C2.33446 20.7422 0 18.4077 0 15.5384V5.20383C0 2.33446 2.33446 0 5.20383 0Z" fill="#F7B229"/>
<path d="M39.7267 0H29.5314C26.6236 0 24.2579 2.36566 24.2579 5.27344V15.4688C24.2579 18.3765 23.9193 20.7422 26.8271 20.7422H39.7267C42.6345 20.7422 45.0001 18.3765 45.0001 15.4688V5.27344C45.0001 2.36566 42.6345 0 39.7267 0Z" fill="#F7B229"/>
<path d="M18.4615 24.2578H5.20383C2.33446 24.2578 0 26.5923 0 29.4616V39.7962C0 42.6655 2.33446 45 5.20383 45H15.5384C18.4077 45 20.7422 42.6655 20.7422 39.7962V29.4616C20.7422 26.5923 21.3309 24.2578 18.4615 24.2578Z" fill="#F7B229"/>
<path d="M39.7264 24.2578H26.5383C23.6305 24.2578 24.2576 26.6235 24.2576 29.5312V39.7266C24.2576 42.6343 26.6233 45 29.5311 45H39.7264C42.6342 45 44.9998 42.6343 44.9998 39.7266V29.5312C44.9998 26.6235 42.6342 24.2578 39.7264 24.2578Z" fill="#F7B229"/>
</svg>
