<svg width="15" height="15" viewBox="0 0 15 15" fill="none" xmlns="http://www.w3.org/2000/svg">
<g clip-path="url(#clip0_332_4706)">
<path fill-rule="evenodd" clip-rule="evenodd" d="M6.44767 0.435674L5.31767 1.56467C5.22643 1.65596 5.10274 1.70737 4.97367 1.70767H3.19567C2.37367 1.70767 1.70767 2.37367 1.70767 3.19567V4.97367C1.70742 5.10304 1.65601 5.22706 1.56467 5.31867L0.434674 6.44767C0.155727 6.72671 -0.000976563 7.10512 -0.000976562 7.49967C-0.000976563 7.89423 0.155727 8.27263 0.434674 8.55167L1.56467 9.68167C1.65596 9.77292 1.70737 9.89661 1.70767 10.0257V11.8037C1.70767 12.6257 2.37367 13.2917 3.19567 13.2917H4.97367C5.10304 13.2919 5.22706 13.3433 5.31867 13.4347L6.44767 14.5647C6.72671 14.8436 7.10512 15.0003 7.49967 15.0003C7.89423 15.0003 8.27263 14.8436 8.55167 14.5647L9.68167 13.4347C9.77292 13.3434 9.89661 13.292 10.0257 13.2917H11.8037C12.6257 13.2917 13.2917 12.6257 13.2917 11.8037V10.0257C13.2919 9.89631 13.3433 9.77229 13.4347 9.68067L14.5647 8.55167C14.8436 8.27263 15.0003 7.89423 15.0003 7.49967C15.0003 7.10512 14.8436 6.72671 14.5647 6.44767L13.4347 5.31767C13.3434 5.22643 13.292 5.10274 13.2917 4.97367V3.19567C13.2917 2.37367 12.6257 1.70767 11.8037 1.70767H10.0257C9.89626 1.70764 9.77216 1.6562 9.68067 1.56467L8.55167 0.434674C8.27263 0.155727 7.89423 -0.000976563 7.49967 -0.000976562C7.10512 -0.000976563 6.72671 0.155727 6.44767 0.434674V0.435674ZM4.64567 9.64567L9.64567 4.64567L10.3537 5.35367L5.35367 10.3537L4.64567 9.64567ZM4.99967 4.99967V5.99967H5.99967V4.99967H4.99967ZM8.99967 9.99967H9.99967V8.99967H8.99967V9.99967Z" fill="#DC4F72"/>
</g>
<defs>
<clipPath id="clip0_332_4706">
<rect width="15" height="15" fill="white"/>
</clipPath>
</defs>
</svg>
