<svg width="14" height="14" viewBox="0 0 14 14" fill="none" xmlns="http://www.w3.org/2000/svg">
<path fill-rule="evenodd" clip-rule="evenodd" d="M7 8.33333V5.66667C7 5.29848 7.29848 5 7.66667 5H13.6667V9H7.66667C7.29848 9 7 8.70152 7 8.33333ZM11 7C11 6.26362 10.403 5.66667 9.66667 5.66667C8.93029 5.66667 8.33333 6.26362 8.33333 7C8.33333 7.73638 8.93029 8.33333 9.66667 8.33333C10.403 8.33333 11 7.73638 11 7Z" fill="#DC4F72"/>
<path d="M7.66659 10.3335C6.56202 10.3335 5.66659 9.43807 5.66659 8.3335V5.66683C5.66659 4.56226 6.56202 3.66683 7.66659 3.66683H13.6666V2.3335C13.6666 1.22893 12.7712 0.333496 11.6666 0.333496H2.33325C1.22868 0.333496 0.333252 1.22893 0.333252 2.3335V11.6668C0.333252 12.7714 1.22868 13.6668 2.33325 13.6668H11.6666C12.7712 13.6668 13.6666 12.7714 13.6666 11.6668V10.3335H7.66659Z" fill="#DC4F72"/>
</svg>
