<svg width="12" height="12" viewBox="0 0 12 12" fill="none" xmlns="http://www.w3.org/2000/svg">
<path d="M0 1.33333V9.91667C0 10.4692 0.213561 10.9991 0.593702 11.3898C0.973844 11.7805 1.48943 12 2.02703 12H9.97297C10.5106 12 11.0262 11.7805 11.4063 11.3898C11.7864 10.9991 12 10.4692 12 9.91667V4.08333C12 3.60309 11.8386 3.1376 11.5431 2.76558C11.2476 2.39356 10.8362 2.13784 10.3784 2.04167V1.41667C10.3784 1.04094 10.2332 0.680609 9.97466 0.414932C9.71616 0.149256 9.36557 5.06926e-09 9 5.06926e-09H1.37838C1.02683 -3.05422e-05 0.688547 0.137998 0.432744 0.385849C0.176942 0.6337 0.0229498 0.972641 0.00227026 1.33333H0ZM9.56757 1.41667V2H1.37838C1.22785 2 1.08349 1.93854 0.977047 1.82915C0.870608 1.71975 0.810811 1.57138 0.810811 1.41667C0.810811 1.26196 0.870608 1.11358 0.977047 1.00419C1.08349 0.894791 1.22785 0.833333 1.37838 0.833333H9C9.31362 0.833333 9.56757 1.09467 9.56757 1.41667ZM8.51351 6.66667H9.97297C10.0805 6.66667 10.1836 6.71057 10.2596 6.78871C10.3357 6.86685 10.3784 6.97283 10.3784 7.08333C10.3784 7.19384 10.3357 7.29982 10.2596 7.37796C10.1836 7.4561 10.0805 7.5 9.97297 7.5H8.51351C8.40599 7.5 8.30288 7.4561 8.22685 7.37796C8.15082 7.29982 8.10811 7.19384 8.10811 7.08333C8.10811 6.97283 8.15082 6.86685 8.22685 6.78871C8.30288 6.71057 8.40599 6.66667 8.51351 6.66667Z" fill="#F08C32"/>
</svg>
