<svg width="13" height="20" viewBox="0 0 13 20" fill="none" xmlns="http://www.w3.org/2000/svg">
<path d="M11.6202 1.34932L0.534912 1.43945L0.646638 19.46L11.732 19.3699L11.6202 1.34932Z" fill="#84D253"/>
<path d="M0.64526 19.4593L11.7306 19.3691L11.6632 8.49848L0.577863 8.58861L0.64526 19.4593Z" fill="#58B51D"/>
<path d="M4.52536 3.2552L2.76318 3.26953L2.78502 6.79117L4.54719 6.77684L4.52536 3.2552Z" fill="#39820B"/>
<path d="M9.41451 3.21614L7.65234 3.23047L7.67418 6.75208L9.43635 6.73775L9.41451 3.21614Z" fill="#39820B"/>
<path d="M4.56797 10.1058L2.80579 10.1201L2.82762 13.6417L4.5898 13.6274L4.56797 10.1058Z" fill="#39820B"/>
<path d="M9.45702 10.0658L7.69482 10.0801L7.71666 13.6017L9.47885 13.5874L9.45702 10.0658Z" fill="#39820B"/>
<path d="M6.15616 14.1875C5.34992 14.1941 4.70097 14.9479 4.7067 15.8711L4.7287 19.4259L7.64832 19.4022L7.62628 15.8474C7.6206 14.9241 6.9624 14.181 6.15616 14.1875Z" fill="#39820B"/>
<path d="M11.772 8.2475L0.415161 8.33984L0.421159 9.30721L11.778 9.21487L11.772 8.2475Z" fill="white"/>
<path d="M12.0061 0.57691L0.0860596 0.673828L0.092057 1.64117L12.0121 1.54426L12.0061 0.57691Z" fill="white"/>
<path d="M6.15363 13.7676L6.15361 13.7676C4.95564 13.7774 3.98624 14.8707 3.94812 16.2299C3.94812 16.2299 4.01135 16.618 4.41338 16.6187C4.83576 16.6194 4.89068 16.2222 4.89068 16.2222C4.89068 16.2222 4.93292 16.5 5.26852 16.5859C5.41609 16.6237 5.57335 16.5938 5.69604 16.4926C5.77392 16.4284 5.84744 16.3367 5.86051 16.2144C5.86051 16.2144 5.87822 16.4604 6.13554 16.5613C6.29827 16.6251 6.48033 16.6022 6.62761 16.5005C6.71719 16.4386 6.80095 16.3445 6.8095 16.2067C6.8095 16.2067 6.85819 16.565 7.24471 16.5967C7.63124 16.6284 7.73223 16.1991 7.73223 16.1991C7.73223 16.1991 7.73473 16.6038 8.0924 16.5928C8.38133 16.584 8.38941 16.1938 8.38941 16.1938C8.33445 14.8354 7.3516 13.7579 6.15363 13.7676Z" fill="white"/>
</svg>
