<svg width="20" height="20" viewBox="0 0 20 20" fill="none" xmlns="http://www.w3.org/2000/svg">
<g clip-path="url(#clip0_421_2792)">
<path d="M10 12.4932C8.6193 12.4932 7.5 13.6125 7.5 14.9932V19.9932H12.5V14.9932C12.5 13.6125 11.3807 12.4932 10 12.4932Z" fill="#374957"/>
<path d="M14.1667 14.9875V19.9875H17.5C18.8807 19.9875 20 18.8683 20 17.4875V9.88673C20.0002 9.4538 19.832 9.03778 19.5308 8.72673L12.4492 1.07087C11.1996 -0.281086 9.09074 -0.364094 7.73879 0.885438C7.67457 0.944813 7.6127 1.00665 7.55336 1.07087L0.48418 8.72423C0.173945 9.03657 -0.000117128 9.45899 5.9134e-08 9.89923V17.4875C5.9134e-08 18.8683 1.1193 19.9875 2.5 19.9875H5.83332V14.9875C5.84891 12.7152 7.68355 10.8596 9.89867 10.8061C12.1879 10.7509 14.1492 12.6381 14.1667 14.9875Z" fill="#DC4F72"/>
<path d="M10 12.4932C8.6193 12.4932 7.5 13.6125 7.5 14.9932V19.9932H12.5V14.9932C12.5 13.6125 11.3807 12.4932 10 12.4932Z" fill="#FA84AE"/>
</g>
<defs>
<clipPath id="clip0_421_2792">
<rect width="20" height="20" fill="white"/>
</clipPath>
</defs>
</svg>
