<svg width="66" height="103" viewBox="0 0 66 103" fill="none" xmlns="http://www.w3.org/2000/svg">
<path d="M62.9159 4.20268L2.44775 4.69434L3.0572 102.993L63.5254 102.501L62.9159 4.20268Z" fill="white"/>
<path d="M3.05035 102.989L63.5186 102.497L63.1509 43.1998L2.68271 43.6915L3.05035 102.989Z" fill="white"/>
<path d="M24.2161 14.6103L14.6038 14.6885L14.7229 33.8983L24.3352 33.8201L24.2161 14.6103Z" fill="#EB4F4D"/>
<path d="M50.8855 14.3867L41.2732 14.4648L41.3923 33.6745L51.0046 33.5963L50.8855 14.3867Z" fill="#EB4F4D"/>
<path d="M24.4478 51.9736L14.8354 52.0518L14.9545 71.2613L24.5669 71.1832L24.4478 51.9736Z" fill="#EB4F4D"/>
<path d="M51.1173 51.75L41.5049 51.8281L41.624 71.0379L51.2364 70.9598L51.1173 51.75Z" fill="#EB4F4D"/>
<path d="M33.111 74.2327C28.7132 74.2684 25.1733 78.3801 25.2046 83.4163L25.3245 102.807L41.2505 102.678L41.1303 83.287C41.0993 78.2506 37.5089 74.197 33.111 74.2327Z" fill="#EB4F4D"/>
<path d="M63.7444 41.8313L1.79517 42.335L1.82788 47.6117L63.7771 47.108L63.7444 41.8313Z" fill="white"/>
<path d="M65.0212 -0.00035084L0 0.52832L0.032715 5.805L65.0539 5.27632L65.0212 -0.00035084Z" fill="white"/>
<path d="M33.096 71.9525L33.0959 71.9524C26.5613 72.0055 21.2734 77.9693 21.0654 85.3835C21.0654 85.3835 21.4103 87.5007 23.6033 87.5043C25.9073 87.5082 26.2069 85.3418 26.2069 85.3418C26.2069 85.3418 26.4373 86.857 28.2679 87.3256C29.0729 87.5317 29.9307 87.3686 30.6 86.8166C31.0248 86.4663 31.4258 85.966 31.4971 85.2988C31.4971 85.2988 31.5937 86.6411 32.9974 87.1913C33.885 87.5392 34.8781 87.4146 35.6815 86.8596C36.1702 86.522 36.627 86.0085 36.6737 85.2569C36.6737 85.2569 36.9393 87.2114 39.0477 87.3843C41.1561 87.5572 41.707 85.2159 41.707 85.2159C41.707 85.2159 41.7206 87.423 43.6716 87.3634C45.2477 87.3152 45.2918 85.1869 45.2918 85.1869C44.992 77.7767 39.6307 71.8994 33.096 71.9525Z" fill="white"/>
</svg>
