<svg width="8" height="10" viewBox="0 0 8 10" fill="none" xmlns="http://www.w3.org/2000/svg">
<g clip-path="url(#clip0_537_14961)">
<path d="M3.36461 9.79824C0.526758 5.6842 0 5.26197 0 3.75C0 1.67893 1.67893 0 3.75 0C5.82107 0 7.5 1.67893 7.5 3.75C7.5 5.26197 6.97324 5.6842 4.13539 9.79824C3.94916 10.0673 3.55082 10.0672 3.36461 9.79824ZM3.75 5.3125C4.61295 5.3125 5.3125 4.61295 5.3125 3.75C5.3125 2.88705 4.61295 2.1875 3.75 2.1875C2.88705 2.1875 2.1875 2.88705 2.1875 3.75C2.1875 4.61295 2.88705 5.3125 3.75 5.3125Z" fill="#EA0000"/>
</g>
<defs>
<clipPath id="clip0_537_14961">
<rect width="7.5" height="10" fill="white"/>
</clipPath>
</defs>
</svg>
