<svg width="18" height="24" viewBox="0 0 18 24" fill="none" xmlns="http://www.w3.org/2000/svg">
<path d="M18 7.42693C18 8.7106 17.6817 9.91404 17.0452 11.0372C16.4322 12.1605 15.4538 13.0659 14.11 13.7536C12.7898 14.4413 11.1159 14.7851 9.08841 14.7851H4.95088V24H0V0H9.08841C10.998 0 12.6248 0.320916 13.9686 0.96275C15.3124 1.60458 16.3143 2.48711 16.9745 3.61031C17.6582 4.73352 18 6.00573 18 7.42693ZM8.87623 10.8997C10.2436 10.8997 11.2574 10.6017 11.9175 10.0057C12.5776 9.38682 12.9077 8.52722 12.9077 7.42693C12.9077 5.08882 11.5639 3.91977 8.87623 3.91977H4.95088V10.8997H8.87623Z" fill="white"/>
</svg>
