<svg width="24" height="24" viewBox="0 0 24 24" fill="none" xmlns="http://www.w3.org/2000/svg">
<path d="M13.409 2.51305C12.5054 2.14669 11.4946 2.14669 10.591 2.51305L8.401 3.40105L17.993 7.13105L21.367 5.82805C21.2287 5.71327 21.0736 5.62051 20.907 5.55305L13.409 2.51305V2.51305ZM22 7.19105L12.75 10.7651V21.6881C12.974 21.6431 13.194 21.5761 13.409 21.4891L20.907 18.4491C21.23 18.3182 21.5065 18.094 21.7013 17.805C21.896 17.516 22 17.1755 22 16.8271V7.19205V7.19105ZM11.25 21.6881V10.7651L2 7.19105V16.8281C2.0002 17.1763 2.10431 17.5166 2.29903 17.8054C2.49374 18.0942 2.77019 18.3183 3.093 18.4491L10.591 21.4891C10.806 21.5761 11.026 21.6421 11.25 21.6891V21.6881ZM2.633 5.82805L12 9.44705L15.917 7.93305L6.374 4.22305L3.093 5.55305C2.923 5.62205 2.769 5.71505 2.633 5.82805V5.82805Z" fill="#DC4F72"/>
</svg>
