<svg width="24" height="25" viewBox="0 0 24 25" fill="none" xmlns="http://www.w3.org/2000/svg">
<g clip-path="url(#clip0_421_3228)">
<path d="M22.5001 21.4996H21.9376C21.8878 21.4996 21.8401 21.4798 21.805 21.4446C21.7698 21.4095 21.7501 21.3618 21.7501 21.3121V13.3203C21.7505 13.2905 21.7438 13.261 21.7305 13.2343C21.7173 13.2076 21.6978 13.1844 21.6738 13.1667C21.6498 13.149 21.6219 13.1373 21.5924 13.1325C21.563 13.1278 21.5328 13.1301 21.5044 13.1394C21.0743 13.2746 20.6276 13.35 20.1769 13.3635C20.1216 13.3635 20.0691 13.3658 20.0176 13.3658C19.1507 13.3678 18.2978 13.1477 17.5402 12.7264C17.4829 12.6945 17.4183 12.6778 17.3527 12.6778C17.2871 12.6778 17.2226 12.6945 17.1652 12.7264C16.4078 13.1477 15.555 13.3679 14.6883 13.3658C13.8265 13.367 12.9791 13.1443 12.2293 12.7194C12.1715 12.6867 12.1061 12.6694 12.0397 12.6694C11.9732 12.6694 11.9079 12.6867 11.8501 12.7194C11.089 13.1459 10.2306 13.3687 9.35819 13.3663C8.49056 13.3668 7.63784 13.1406 6.8846 12.71C6.82631 12.6769 6.76041 12.6594 6.69335 12.6594C6.62629 12.6594 6.56038 12.6769 6.5021 12.71C5.74885 13.1406 4.89614 13.3668 4.0285 13.3663C3.97741 13.3663 3.92585 13.3663 3.87053 13.3639H3.86772C3.40122 13.3499 2.93908 13.2696 2.49522 13.1253C2.46711 13.1163 2.43726 13.1139 2.40808 13.1186C2.37891 13.1232 2.35125 13.1347 2.32735 13.1521C2.30346 13.1694 2.284 13.1922 2.27057 13.2185C2.25714 13.2448 2.25011 13.2739 2.25007 13.3035V21.3121C2.25007 21.3618 2.23031 21.4095 2.19515 21.4446C2.15999 21.4798 2.11229 21.4996 2.06257 21.4996H1.5235C1.1185 21.4996 0.768816 21.8108 0.751004 22.2158C0.746445 22.317 0.76244 22.4181 0.798026 22.513C0.833611 22.6078 0.888048 22.6945 0.958052 22.7678C1.02805 22.841 1.11217 22.8993 1.20533 22.9391C1.29849 22.979 1.39875 22.9995 1.50007 22.9996H22.4766C22.8816 22.9996 23.2313 22.6883 23.2491 22.2833C23.2537 22.1821 23.2377 22.081 23.2021 21.9861C23.1665 21.8913 23.1121 21.8046 23.0421 21.7314C22.9721 21.6581 22.888 21.5998 22.7948 21.56C22.7016 21.5201 22.6014 21.4996 22.5001 21.4996ZM10.5001 18.3121C10.5001 18.3618 10.4803 18.4095 10.4451 18.4446C10.41 18.4798 10.3623 18.4996 10.3126 18.4996H6.18757C6.13784 18.4996 6.09015 18.4798 6.05498 18.4446C6.01982 18.4095 6.00007 18.3618 6.00007 18.3121V15.3121C6.00007 15.1629 6.05933 15.0198 6.16482 14.9143C6.27031 14.8088 6.41338 14.7496 6.56257 14.7496H9.93757C10.0868 14.7496 10.2298 14.8088 10.3353 14.9143C10.4408 15.0198 10.5001 15.1629 10.5001 15.3121V18.3121ZM17.8126 21.4996H14.4376C14.3878 21.4996 14.3401 21.4798 14.305 21.4446C14.2698 21.4095 14.2501 21.3618 14.2501 21.3121V15.3121C14.2501 15.1629 14.3093 15.0198 14.4148 14.9143C14.5203 14.8088 14.6634 14.7496 14.8126 14.7496H17.4376C17.5868 14.7496 17.7298 14.8088 17.8353 14.9143C17.9408 15.0198 18.0001 15.1629 18.0001 15.3121V21.3121C18.0001 21.3618 17.9803 21.4095 17.9451 21.4446C17.91 21.4798 17.8623 21.4996 17.8126 21.4996Z" fill="#DC4F72"/>
<path d="M23.0893 8.48187L21.0775 3.86516C20.5506 2.73219 19.3473 2 18.0118 2H5.98606C4.6506 2 3.44731 2.73219 2.92044 3.86516L0.908565 8.48187C0.48669 9.39172 1.04403 10.3259 1.0445 10.3264L1.05763 10.3475C1.0806 10.3841 1.12138 10.4412 1.14622 10.4778C1.14857 10.4806 1.15044 10.4839 1.15278 10.4872L1.38716 10.7708C1.39592 10.7815 1.40531 10.7917 1.41528 10.8012L1.64966 11.0277L1.66935 11.0445C1.80699 11.1625 1.95422 11.2688 2.1095 11.3623V11.3647C2.61965 11.6737 3.20086 11.846 3.797 11.8648H3.91278C4.81479 11.8665 5.68392 11.5263 6.34513 10.9128L6.3606 10.8983C6.42965 10.8332 6.52095 10.797 6.61583 10.797C6.71071 10.797 6.80201 10.8332 6.87107 10.8983L6.88653 10.9128C7.55478 11.5253 8.42834 11.8651 9.33482 11.8651C10.2413 11.8651 11.1148 11.5253 11.7831 10.9128C11.8524 10.8486 11.9434 10.813 12.0379 10.813C12.1323 10.813 12.2233 10.8486 12.2926 10.9128C12.9589 11.5234 13.8293 11.8629 14.733 11.8649C15.6367 11.8669 16.5085 11.5312 17.1775 10.9236C17.2458 10.8603 17.3354 10.8252 17.4285 10.8252C17.5216 10.8252 17.6112 10.8603 17.6795 10.9236C18.3492 11.5349 19.2248 11.871 20.1315 11.8648H20.2483C20.8294 11.8431 21.3949 11.6703 21.8889 11.3633C21.9334 11.3366 21.9761 11.3084 22.0192 11.2803C22.3523 11.0557 22.6423 10.7729 22.8751 10.4455L22.9567 10.3222C22.9648 10.3097 22.9723 10.2966 22.9792 10.2828C23.057 10.1244 23.4742 9.30969 23.0893 8.48187Z" fill="#DC4F72"/>
<mask id="mask0_421_3228" style="mask-type:alpha" maskUnits="userSpaceOnUse" x="9" y="-1" width="19" height="26">
<ellipse cx="18.6001" cy="11.9" rx="9" ry="12.6" fill="black"/>
</mask>
<g mask="url(#mask0_421_3228)">
<path d="M22.5001 21.4996H21.9376C21.8878 21.4996 21.8401 21.4798 21.805 21.4446C21.7698 21.4095 21.7501 21.3618 21.7501 21.3121V13.3203C21.7505 13.2905 21.7438 13.261 21.7305 13.2343C21.7173 13.2076 21.6978 13.1844 21.6738 13.1667C21.6498 13.149 21.6219 13.1373 21.5924 13.1325C21.563 13.1278 21.5328 13.1301 21.5044 13.1394C21.0743 13.2746 20.6276 13.35 20.1769 13.3635C20.1216 13.3635 20.0691 13.3658 20.0176 13.3658C19.1507 13.3678 18.2978 13.1477 17.5402 12.7264C17.4829 12.6945 17.4183 12.6778 17.3527 12.6778C17.2871 12.6778 17.2226 12.6945 17.1652 12.7264C16.4078 13.1477 15.555 13.3679 14.6883 13.3658C13.8265 13.367 12.9791 13.1443 12.2293 12.7194C12.1715 12.6867 12.1061 12.6694 12.0397 12.6694C11.9732 12.6694 11.9079 12.6867 11.8501 12.7194C11.089 13.1459 10.2306 13.3687 9.35819 13.3663C8.49056 13.3668 7.63784 13.1406 6.8846 12.71C6.82631 12.6769 6.76041 12.6594 6.69335 12.6594C6.62629 12.6594 6.56038 12.6769 6.5021 12.71C5.74885 13.1406 4.89614 13.3668 4.0285 13.3663C3.97741 13.3663 3.92585 13.3663 3.87053 13.3639H3.86772C3.40122 13.3499 2.93908 13.2696 2.49522 13.1253C2.46711 13.1163 2.43726 13.1139 2.40808 13.1186C2.37891 13.1232 2.35125 13.1347 2.32735 13.1521C2.30346 13.1694 2.284 13.1922 2.27057 13.2185C2.25714 13.2448 2.25011 13.2739 2.25007 13.3035V21.3121C2.25007 21.3618 2.23031 21.4095 2.19515 21.4446C2.15999 21.4798 2.11229 21.4996 2.06257 21.4996H1.5235C1.1185 21.4996 0.768816 21.8108 0.751004 22.2158C0.746445 22.317 0.76244 22.4181 0.798026 22.513C0.833611 22.6078 0.888048 22.6945 0.958052 22.7678C1.02805 22.841 1.11217 22.8993 1.20533 22.9391C1.29849 22.979 1.39875 22.9995 1.50007 22.9996H22.4766C22.8816 22.9996 23.2313 22.6883 23.2491 22.2833C23.2537 22.1821 23.2377 22.081 23.2021 21.9861C23.1665 21.8913 23.1121 21.8046 23.0421 21.7314C22.9721 21.6581 22.888 21.5998 22.7948 21.56C22.7016 21.5201 22.6014 21.4996 22.5001 21.4996ZM10.5001 18.3121C10.5001 18.3618 10.4803 18.4095 10.4451 18.4446C10.41 18.4798 10.3623 18.4996 10.3126 18.4996H6.18757C6.13784 18.4996 6.09015 18.4798 6.05498 18.4446C6.01982 18.4095 6.00007 18.3618 6.00007 18.3121V15.3121C6.00007 15.1629 6.05933 15.0198 6.16482 14.9143C6.27031 14.8088 6.41338 14.7496 6.56257 14.7496H9.93757C10.0868 14.7496 10.2298 14.8088 10.3353 14.9143C10.4408 15.0198 10.5001 15.1629 10.5001 15.3121V18.3121ZM17.8126 21.4996H14.4376C14.3878 21.4996 14.3401 21.4798 14.305 21.4446C14.2698 21.4095 14.2501 21.3618 14.2501 21.3121V15.3121C14.2501 15.1629 14.3093 15.0198 14.4148 14.9143C14.5203 14.8088 14.6634 14.7496 14.8126 14.7496H17.4376C17.5868 14.7496 17.7298 14.8088 17.8353 14.9143C17.9408 15.0198 18.0001 15.1629 18.0001 15.3121V21.3121C18.0001 21.3618 17.9803 21.4095 17.9451 21.4446C17.91 21.4798 17.8623 21.4996 17.8126 21.4996Z" fill="#DC4F72"/>
<path d="M23.0893 8.48187L21.0775 3.86516C20.5506 2.73219 19.3473 2 18.0118 2H5.98606C4.6506 2 3.44731 2.73219 2.92044 3.86516L0.908565 8.48187C0.48669 9.39172 1.04403 10.3259 1.0445 10.3264L1.05763 10.3475C1.0806 10.3841 1.12138 10.4412 1.14622 10.4778C1.14857 10.4806 1.15044 10.4839 1.15278 10.4872L1.38716 10.7708C1.39592 10.7815 1.40531 10.7917 1.41528 10.8012L1.64966 11.0277L1.66935 11.0445C1.80699 11.1625 1.95422 11.2688 2.1095 11.3623V11.3647C2.61965 11.6737 3.20086 11.846 3.797 11.8648H3.91278C4.81479 11.8665 5.68392 11.5263 6.34513 10.9128L6.3606 10.8983C6.42965 10.8332 6.52095 10.797 6.61583 10.797C6.71071 10.797 6.80201 10.8332 6.87107 10.8983L6.88653 10.9128C7.55478 11.5253 8.42834 11.8651 9.33482 11.8651C10.2413 11.8651 11.1148 11.5253 11.7831 10.9128C11.8524 10.8486 11.9434 10.813 12.0379 10.813C12.1323 10.813 12.2233 10.8486 12.2926 10.9128C12.9589 11.5234 13.8293 11.8629 14.733 11.8649C15.6367 11.8669 16.5085 11.5312 17.1775 10.9236C17.2458 10.8603 17.3354 10.8252 17.4285 10.8252C17.5216 10.8252 17.6112 10.8603 17.6795 10.9236C18.3492 11.5349 19.2248 11.871 20.1315 11.8648H20.2483C20.8294 11.8431 21.3949 11.6703 21.8889 11.3633C21.9334 11.3366 21.9761 11.3084 22.0192 11.2803C22.3523 11.0557 22.6423 10.7729 22.8751 10.4455L22.9567 10.3222C22.9648 10.3097 22.9723 10.2966 22.9792 10.2828C23.057 10.1244 23.4742 9.30969 23.0893 8.48187Z" fill="#DC4F72"/>
</g>
</g>
<defs>
<clipPath id="clip0_421_3228">
<rect width="24" height="24" fill="white" transform="translate(0 0.5)"/>
</clipPath>
</defs>
</svg>
