<svg width="20" height="20" viewBox="0 0 20 20" fill="none" xmlns="http://www.w3.org/2000/svg">
<g clip-path="url(#clip0)">
<path d="M19.2694 6.73043L16.3398 2.6289C16.2226 2.47656 16.0468 2.38281 15.8593 2.38281H4.14069C3.95319 2.38281 3.77741 2.47656 3.66022 2.6289L0.730564 6.73043C0.695409 6.83589 0.660253 6.94136 0.625097 7.04683C0.613378 8.3476 1.66806 9.41399 2.96882 9.41399C3.67194 9.41399 4.29303 9.10931 4.72662 8.61713C5.16021 9.10931 5.7813 9.41399 6.48441 9.41399C7.18753 9.41399 7.80862 9.10931 8.24221 8.61713C8.6758 9.10931 9.29689 9.41399 10 9.41399C10.7031 9.41399 11.3242 9.10931 11.7578 8.61713C12.1914 9.10931 12.8125 9.41399 13.5156 9.41399C14.2187 9.41399 14.8398 9.10931 15.2734 8.61713C15.707 9.10931 16.3281 9.41399 17.0312 9.41399C18.332 9.41399 19.3866 8.3476 19.3749 7.04683C19.3398 6.94136 19.3046 6.83589 19.2694 6.73043Z" fill="white"/>
<path d="M17.0312 10.5857C16.409 10.5857 15.8031 10.4193 15.2734 10.1123C14.2141 10.7252 12.8172 10.7252 11.7578 10.1123C10.6985 10.7252 9.30044 10.7252 8.24225 10.1123C7.18405 10.7252 5.78485 10.7252 4.72666 10.1123C3.84659 10.6232 2.75675 10.6889 1.797 10.3572V16.4451C1.797 17.0919 2.32199 17.6169 2.96886 17.6169H12.3438V11.7576H15.8594V17.6169H17.0312C17.6781 17.6169 18.2031 17.0919 18.2031 16.4451V10.3713C17.8304 10.5037 17.4379 10.5857 17.0312 10.5857ZM8.82818 15.2732H4.14072V11.7576H8.82818V15.2732Z" fill="white"/>
</g>
<defs>
<clipPath id="clip0">
<rect width="18.75" height="18.75" fill="white" transform="translate(0.625 0.625)"/>
</clipPath>
</defs>
</svg>
