<svg width="24" height="24" viewBox="0 0 24 24" fill="none" xmlns="http://www.w3.org/2000/svg">
    <path d="M12 4.95703C7.031 4.95703 2 6.48967 2 9.41813C2 12.3466 7.031 13.8792 12 13.8792C16.97 13.8792 22 12.3466 22 9.41813C22 6.48967 16.97 4.95703 12 4.95703ZM7 14.8091V17.7832C8.237 18.0796 9.605 18.261 11 18.3195V15.3454C9.605 15.286 8.237 15.1045 7 14.8091ZM13 15.3444V18.3185C14.395 18.26 15.764 18.0786 17 17.7822V14.8081C15.764 15.1045 14.395 15.286 13 15.3444ZM19 14.1737V17.1477C20.801 16.3992 22 15.3068 22 13.8792V10.9052C22 12.3327 20.801 13.4252 19 14.1737ZM5 17.1477V14.1737C3.2 13.4252 2 12.3317 2 10.9052V13.8792C2 15.3058 3.2 16.3992 5 17.1477Z" fill="#F08C32"/>
</svg>