<svg width="24" height="25" viewBox="0 0 24 25" fill="none" xmlns="http://www.w3.org/2000/svg">
<g clip-path="url(#clip0_3659_2610)">
<path d="M22.4998 21.5003H21.9373C21.8876 21.5003 21.8399 21.4805 21.8047 21.4454C21.7696 21.4102 21.7498 21.3625 21.7498 21.3128V13.3211C21.7502 13.2912 21.7435 13.2617 21.7303 13.235C21.717 13.2083 21.6976 13.1851 21.6735 13.1674C21.6495 13.1497 21.6216 13.138 21.5922 13.1333C21.5627 13.1285 21.5326 13.1309 21.5042 13.1401C21.0741 13.2753 20.6274 13.3507 20.1767 13.3642C20.1214 13.3642 20.0689 13.3665 20.0173 13.3665C19.1505 13.3686 18.2976 13.1485 17.54 12.7272C17.4826 12.6953 17.4181 12.6785 17.3525 12.6785C17.2869 12.6785 17.2223 12.6953 17.165 12.7272C16.4076 13.1485 15.5548 13.3686 14.6881 13.3665C13.8263 13.3678 12.9789 13.145 12.229 12.7201C12.1712 12.6874 12.1059 12.6702 12.0394 12.6702C11.973 12.6702 11.9077 12.6874 11.8498 12.7201C11.0887 13.1466 10.2304 13.3694 9.35795 13.367C8.49031 13.3676 7.6376 13.1414 6.88435 12.7108C6.82607 12.6776 6.76016 12.6602 6.6931 12.6602C6.62604 12.6602 6.56014 12.6776 6.50185 12.7108C5.74861 13.1414 4.89589 13.3676 4.02826 13.367C3.97717 13.367 3.9256 13.367 3.87029 13.3647H3.86748C3.40097 13.3507 2.93884 13.2703 2.49498 13.1261C2.46687 13.117 2.43701 13.1147 2.40784 13.1193C2.37867 13.124 2.35101 13.1354 2.32711 13.1528C2.30321 13.1702 2.28375 13.1929 2.27032 13.2192C2.25689 13.2455 2.24987 13.2747 2.24982 13.3042V21.3128C2.24982 21.3625 2.23007 21.4102 2.1949 21.4454C2.15974 21.4805 2.11205 21.5003 2.06232 21.5003H1.52326C1.11826 21.5003 0.768572 21.8115 0.75076 22.2165C0.7462 22.3178 0.762196 22.4188 0.797782 22.5137C0.833367 22.6086 0.887804 22.6952 0.957807 22.7685C1.02781 22.8417 1.11193 22.9 1.20509 22.9399C1.29824 22.9797 1.3985 23.0003 1.49982 23.0003H22.4764C22.8814 23.0003 23.2311 22.689 23.2489 22.284C23.2534 22.1828 23.2374 22.0817 23.2019 21.9869C23.1663 21.892 23.1118 21.8053 23.0418 21.7321C22.9718 21.6588 22.8877 21.6005 22.7946 21.5607C22.7014 21.5209 22.6011 21.5003 22.4998 21.5003ZM10.4998 18.3128C10.4998 18.3625 10.4801 18.4102 10.4449 18.4454C10.4097 18.4805 10.3621 18.5003 10.3123 18.5003H6.18732C6.13759 18.5003 6.0899 18.4805 6.05474 18.4454C6.01958 18.4102 5.99982 18.3625 5.99982 18.3128V15.3128C5.99982 15.1636 6.05909 15.0205 6.16457 14.915C6.27006 14.8096 6.41314 14.7503 6.56232 14.7503H9.93732C10.0865 14.7503 10.2296 14.8096 10.3351 14.915C10.4406 15.0205 10.4998 15.1636 10.4998 15.3128V18.3128ZM17.8123 21.5003H14.4373C14.3876 21.5003 14.3399 21.4805 14.3047 21.4454C14.2696 21.4102 14.2498 21.3625 14.2498 21.3128V15.3128C14.2498 15.1636 14.3091 15.0205 14.4146 14.915C14.5201 14.8096 14.6631 14.7503 14.8123 14.7503H17.4373C17.5865 14.7503 17.7296 14.8096 17.8351 14.915C17.9406 15.0205 17.9998 15.1636 17.9998 15.3128V21.3128C17.9998 21.3625 17.9801 21.4102 17.9449 21.4454C17.9097 21.4805 17.862 21.5003 17.8123 21.5003Z" fill="#F6B229"/>
<path d="M23.0891 8.48187L21.0772 3.86516C20.5504 2.73219 19.3471 2 18.0116 2H5.98582C4.65035 2 3.44707 2.73219 2.9202 3.86516L0.908321 8.48187C0.486446 9.39172 1.04379 10.3259 1.04426 10.3264L1.05738 10.3475C1.08035 10.3841 1.12113 10.4412 1.14598 10.4778C1.14832 10.4806 1.1502 10.4839 1.15254 10.4872L1.38692 10.7708C1.39568 10.7815 1.40507 10.7917 1.41504 10.8012L1.64941 11.0277L1.6691 11.0445C1.80674 11.1625 1.95397 11.2688 2.10926 11.3623V11.3647C2.6194 11.6737 3.20061 11.846 3.79676 11.8648H3.91254C4.81454 11.8665 5.68368 11.5263 6.34488 10.9128L6.36035 10.8983C6.42941 10.8332 6.52071 10.797 6.61559 10.797C6.71047 10.797 6.80176 10.8332 6.87082 10.8983L6.88629 10.9128C7.55454 11.5253 8.42809 11.8651 9.33457 11.8651C10.241 11.8651 11.1146 11.5253 11.7829 10.9128C11.8522 10.8486 11.9432 10.813 12.0376 10.813C12.1321 10.813 12.2231 10.8486 12.2924 10.9128C12.9587 11.5234 13.829 11.8629 14.7327 11.8649C15.6364 11.8669 16.5083 11.5312 17.1772 10.9236C17.2455 10.8603 17.3352 10.8252 17.4282 10.8252C17.5213 10.8252 17.611 10.8603 17.6793 10.9236C18.3489 11.5349 19.2246 11.871 20.1313 11.8648H20.248C20.8292 11.8431 21.3947 11.6703 21.8886 11.3633C21.9332 11.3366 21.9758 11.3084 22.0189 11.2803C22.3521 11.0557 22.642 10.7729 22.8749 10.4455L22.9564 10.3222C22.9646 10.3097 22.9721 10.2966 22.9789 10.2828C23.0568 10.1244 23.4739 9.30969 23.0891 8.48187Z" fill="#F6B229"/>
<mask id="mask0_3659_2610" style="mask-type:alpha" maskUnits="userSpaceOnUse" x="9" y="-1" width="19" height="26">
<ellipse cx="18.6001" cy="11.9008" rx="9" ry="12.6" fill="black"/>
</mask>
<g mask="url(#mask0_3659_2610)">
<path d="M22.4998 21.5003H21.9373C21.8876 21.5003 21.8399 21.4805 21.8047 21.4454C21.7696 21.4102 21.7498 21.3625 21.7498 21.3128V13.3211C21.7502 13.2912 21.7435 13.2617 21.7303 13.235C21.717 13.2083 21.6976 13.1851 21.6735 13.1674C21.6495 13.1497 21.6216 13.138 21.5922 13.1333C21.5627 13.1285 21.5326 13.1309 21.5042 13.1401C21.0741 13.2753 20.6274 13.3507 20.1767 13.3642C20.1214 13.3642 20.0689 13.3665 20.0173 13.3665C19.1505 13.3686 18.2976 13.1485 17.54 12.7272C17.4826 12.6953 17.4181 12.6785 17.3525 12.6785C17.2869 12.6785 17.2223 12.6953 17.165 12.7272C16.4076 13.1485 15.5548 13.3686 14.6881 13.3665C13.8263 13.3678 12.9789 13.145 12.229 12.7201C12.1712 12.6874 12.1059 12.6702 12.0394 12.6702C11.973 12.6702 11.9077 12.6874 11.8498 12.7201C11.0887 13.1466 10.2304 13.3694 9.35795 13.367C8.49031 13.3676 7.6376 13.1414 6.88435 12.7108C6.82607 12.6776 6.76016 12.6602 6.6931 12.6602C6.62604 12.6602 6.56014 12.6776 6.50185 12.7108C5.74861 13.1414 4.89589 13.3676 4.02826 13.367C3.97717 13.367 3.9256 13.367 3.87029 13.3647H3.86748C3.40097 13.3507 2.93884 13.2703 2.49498 13.1261C2.46687 13.117 2.43701 13.1147 2.40784 13.1193C2.37867 13.124 2.35101 13.1354 2.32711 13.1528C2.30321 13.1702 2.28375 13.1929 2.27032 13.2192C2.25689 13.2455 2.24987 13.2747 2.24982 13.3042V21.3128C2.24982 21.3625 2.23007 21.4102 2.1949 21.4454C2.15974 21.4805 2.11205 21.5003 2.06232 21.5003H1.52326C1.11826 21.5003 0.768572 21.8115 0.75076 22.2165C0.7462 22.3178 0.762196 22.4188 0.797782 22.5137C0.833367 22.6086 0.887804 22.6952 0.957807 22.7685C1.02781 22.8417 1.11193 22.9 1.20509 22.9399C1.29824 22.9797 1.3985 23.0003 1.49982 23.0003H22.4764C22.8814 23.0003 23.2311 22.689 23.2489 22.284C23.2534 22.1828 23.2374 22.0817 23.2019 21.9869C23.1663 21.892 23.1118 21.8053 23.0418 21.7321C22.9718 21.6588 22.8877 21.6005 22.7946 21.5607C22.7014 21.5209 22.6011 21.5003 22.4998 21.5003ZM10.4998 18.3128C10.4998 18.3625 10.4801 18.4102 10.4449 18.4454C10.4097 18.4805 10.3621 18.5003 10.3123 18.5003H6.18732C6.13759 18.5003 6.0899 18.4805 6.05474 18.4454C6.01958 18.4102 5.99982 18.3625 5.99982 18.3128V15.3128C5.99982 15.1636 6.05909 15.0205 6.16457 14.915C6.27006 14.8096 6.41314 14.7503 6.56232 14.7503H9.93732C10.0865 14.7503 10.2296 14.8096 10.3351 14.915C10.4406 15.0205 10.4998 15.1636 10.4998 15.3128V18.3128ZM17.8123 21.5003H14.4373C14.3876 21.5003 14.3399 21.4805 14.3047 21.4454C14.2696 21.4102 14.2498 21.3625 14.2498 21.3128V15.3128C14.2498 15.1636 14.3091 15.0205 14.4146 14.915C14.5201 14.8096 14.6631 14.7503 14.8123 14.7503H17.4373C17.5865 14.7503 17.7296 14.8096 17.8351 14.915C17.9406 15.0205 17.9998 15.1636 17.9998 15.3128V21.3128C17.9998 21.3625 17.9801 21.4102 17.9449 21.4454C17.9097 21.4805 17.862 21.5003 17.8123 21.5003Z" fill="#F96B05"/>
<path d="M23.0891 8.48187L21.0772 3.86516C20.5504 2.73219 19.3471 2 18.0116 2H5.98582C4.65035 2 3.44707 2.73219 2.9202 3.86516L0.908321 8.48187C0.486446 9.39172 1.04379 10.3259 1.04426 10.3264L1.05738 10.3475C1.08035 10.3841 1.12113 10.4412 1.14598 10.4778C1.14832 10.4806 1.1502 10.4839 1.15254 10.4872L1.38692 10.7708C1.39568 10.7815 1.40507 10.7917 1.41504 10.8012L1.64941 11.0277L1.6691 11.0445C1.80674 11.1625 1.95397 11.2688 2.10926 11.3623V11.3647C2.6194 11.6737 3.20061 11.846 3.79676 11.8648H3.91254C4.81454 11.8665 5.68368 11.5263 6.34488 10.9128L6.36035 10.8983C6.42941 10.8332 6.52071 10.797 6.61559 10.797C6.71047 10.797 6.80176 10.8332 6.87082 10.8983L6.88629 10.9128C7.55454 11.5253 8.42809 11.8651 9.33457 11.8651C10.241 11.8651 11.1146 11.5253 11.7829 10.9128C11.8522 10.8486 11.9432 10.813 12.0376 10.813C12.1321 10.813 12.2231 10.8486 12.2924 10.9128C12.9587 11.5234 13.829 11.8629 14.7327 11.8649C15.6364 11.8669 16.5083 11.5312 17.1772 10.9236C17.2455 10.8603 17.3352 10.8252 17.4282 10.8252C17.5213 10.8252 17.611 10.8603 17.6793 10.9236C18.3489 11.5349 19.2246 11.871 20.1313 11.8648H20.248C20.8292 11.8431 21.3947 11.6703 21.8886 11.3633C21.9332 11.3366 21.9758 11.3084 22.0189 11.2803C22.3521 11.0557 22.642 10.7729 22.8749 10.4455L22.9564 10.3222C22.9646 10.3097 22.9721 10.2966 22.9789 10.2828C23.0568 10.1244 23.4739 9.30969 23.0891 8.48187Z" fill="#F96B05"/>
</g>
</g>
<defs>
<clipPath id="clip0_3659_2610">
<rect width="24" height="24" fill="white" transform="translate(0 0.5)"/>
</clipPath>
</defs>
</svg>
