<svg width="24" height="25" viewBox="0 0 24 25" fill="none" xmlns="http://www.w3.org/2000/svg">
<path d="M21 21.5V11.75" stroke="#9D9D9D" stroke-width="1.25" stroke-linecap="round" stroke-linejoin="round"/>
<path d="M3 11.75V21.5" stroke="#9D9D9D" stroke-width="1.25" stroke-linecap="round" stroke-linejoin="round"/>
<path d="M17.9281 2.75H6.07157C5.05017 2.75 4.12767 3.3125 3.7311 4.17781L1.70142 8.60938C1.01798 10.1005 2.15282 11.7898 3.91345 11.8438H4.0072C5.47907 11.8438 6.67204 10.6634 6.67204 9.39547C6.67204 10.6611 7.86548 11.8438 9.33735 11.8438C10.8092 11.8438 11.9999 10.7478 11.9999 9.39547C11.9999 10.6611 13.1928 11.8438 14.6647 11.8438C16.1366 11.8438 17.33 10.7478 17.33 9.39547C17.33 10.7478 18.523 11.8438 19.9949 11.8438H20.0863C21.8469 11.7889 22.9817 10.0995 22.2983 8.60938L20.2686 4.17781C19.872 3.3125 18.9495 2.75 17.9281 2.75Z" stroke="#9D9D9D" stroke-width="1.25" stroke-linecap="round" stroke-linejoin="round"/>
<path d="M1.5 22.25H22.5" stroke="#9D9D9D" stroke-width="1.25" stroke-linecap="round" stroke-linejoin="round"/>
<path d="M6.375 14H10.125C10.4234 14 10.7095 14.1185 10.9205 14.3295C11.1315 14.5405 11.25 14.8266 11.25 15.125V19.25H5.25V15.125C5.25 14.8266 5.36853 14.5405 5.5795 14.3295C5.79048 14.1185 6.07663 14 6.375 14Z" stroke="#9D9D9D" stroke-width="1.25" stroke-linecap="round" stroke-linejoin="round"/>
<path d="M13.5 22.25V15.125C13.5 14.8266 13.6185 14.5405 13.8295 14.3295C14.0405 14.1185 14.3266 14 14.625 14H17.625C17.9234 14 18.2095 14.1185 18.4205 14.3295C18.6315 14.5405 18.75 14.8266 18.75 15.125V22.25" stroke="#9D9D9D" stroke-width="1.25" stroke-linecap="round" stroke-linejoin="round"/>
</svg>
