<svg width="32" height="32" viewBox="0 0 32 32" fill="none" xmlns="http://www.w3.org/2000/svg">
<path d="M30.5292 28.0565H29.996V14.1501C31.2001 13.3753 32 12.0242 32 10.4889C32 10.4074 31.9787 10.3272 31.9382 10.2564L28.2187 3.74714C27.9574 3.29007 27.4681 3.00607 26.9417 3.00607H5.05831C4.53187 3.00607 4.04256 3.29001 3.78131 3.74714L0.06175 10.2564C0.0213125 10.3272 0 10.4074 0 10.4889C0 12.0242 0.799875 13.3753 2.004 14.1501V28.0565H1.47075C1.21187 28.0565 1.002 28.2664 1.002 28.5253C1.002 28.7841 1.21187 28.994 1.47075 28.994H30.5292C30.7882 28.994 30.998 28.7841 30.998 28.5253C30.998 28.2664 30.7881 28.0565 30.5292 28.0565ZM0.969813 10.9577H2.47256C2.73144 10.9577 2.94131 10.7478 2.94131 10.4889C2.94131 10.2301 2.73144 10.0202 2.47256 10.0202H1.2765L4.59531 4.21226C4.69006 4.04651 4.86744 3.94357 5.05831 3.94357H26.9417C27.1326 3.94357 27.31 4.04651 27.4047 4.21226L30.7234 10.0202H29.5271C29.2682 10.0202 29.0584 10.2301 29.0584 10.4889C29.0584 10.7478 29.2682 10.9577 29.5271 10.9577H31.0301C30.8009 12.6192 29.3719 13.903 27.6484 13.903C25.9249 13.903 24.4966 12.6191 24.2673 10.9577H27.5233C27.7822 10.9577 27.9921 10.7478 27.9921 10.4889C27.9921 10.2301 27.7822 10.0202 27.5233 10.0202H4.47694C4.21806 10.0202 4.00819 10.2301 4.00819 10.4889C4.00819 10.7478 4.21806 10.9577 4.47694 10.9577H7.73263C7.50338 12.6191 6.07494 13.903 4.35156 13.903C2.62806 13.903 1.199 12.6192 0.969813 10.9577ZM23.2639 10.9577C23.0346 12.6191 21.6062 13.903 19.8828 13.903C18.1594 13.903 16.731 12.6191 16.5018 10.9577H23.2639ZM15.4983 10.9577C15.269 12.6191 13.8406 13.903 12.1172 13.903C10.3938 13.903 8.96537 12.6191 8.73612 10.9577H15.4983ZM26.5534 28.0566H21.4788V26.489H26.5534V28.0566ZM26.5534 25.5515H21.4788V16.9698H26.5534V25.5515ZM29.0585 28.0566H27.4909V16.5011C27.4909 16.2422 27.2811 16.0323 27.0222 16.0323H21.0101C20.7512 16.0323 20.5414 16.2422 20.5414 16.5011V28.0565H2.9415V14.6047C3.38406 14.7568 3.85806 14.8405 4.35156 14.8405C6.045 14.8405 7.51556 13.8683 8.23438 12.4526C8.95319 13.8682 10.4237 14.8405 12.1172 14.8405C13.8106 14.8405 15.2812 13.8683 16 12.4526C16.7188 13.8682 18.1894 14.8405 19.8828 14.8405C21.5763 14.8405 23.0468 13.8683 23.7656 12.4526C24.4844 13.8682 25.955 14.8405 27.6484 14.8405C28.1419 14.8405 28.6159 14.7568 29.0585 14.6048V28.0566Z" fill="#479E10"/>
<path d="M18.505 16.0327H4.97771C4.71883 16.0327 4.50896 16.2426 4.50896 16.5014V26.0206C4.50896 26.2795 4.71883 26.4894 4.97771 26.4894H18.505C18.7639 26.4894 18.9737 26.2795 18.9737 26.0206V16.5014C18.9737 16.2425 18.7639 16.0327 18.505 16.0327ZM18.0362 25.5519H5.44646V16.9702H18.0362V25.5519Z" fill="#479E10"/>
</svg>
