<svg width="32" height="32" viewBox="0 0 32 32" fill="none" xmlns="http://www.w3.org/2000/svg">
<ellipse cx="15.8226" cy="16.059" rx="14.7601" ry="14.7601" fill="#FCE8BF"/>
<path d="M22.555 13.7853C22.5546 13.7902 22.5542 13.7951 22.554 13.8002V13.8233C22.5535 13.8195 22.5535 13.8155 22.5532 13.8118C22.5248 14.24 22.0676 14.5807 21.5055 14.5807H21.2557C20.6822 14.5807 20.2169 14.2258 20.2062 13.7852C20.1954 14.2258 19.7303 14.5807 19.1568 14.5807H18.9068C18.3338 14.5807 17.8683 14.226 17.8573 13.7855C17.8464 14.226 17.3814 14.5807 16.808 14.5807H16.5581C15.985 14.5807 15.52 14.2262 15.5088 13.786C15.4975 14.2262 15.0326 14.5807 14.4594 14.5807H14.2095C13.6363 14.5807 13.171 14.226 13.16 13.7855C13.149 14.226 12.6838 14.5807 12.1105 14.5807H11.8606C11.2882 14.5807 10.8235 14.2271 10.8112 13.7876C10.7989 14.2271 10.3341 14.5807 9.76167 14.5807H9.51183C8.93983 14.5807 8.47517 14.2271 8.46259 13.7879C8.46165 13.8154 8.45906 13.8425 8.45475 13.8694C8.39105 14.2701 7.94933 14.5807 7.41307 14.5807H7.16341C7.16034 14.5807 7.1574 14.5803 7.1543 14.5803V24.3616H23.7784V14.5807H23.6043C23.031 14.5807 22.5657 14.2259 22.555 13.7853Z" fill="white"/>
<path d="M7.1543 10.7793V14.5815C7.1574 14.5815 7.16034 14.5819 7.16341 14.5819H7.41307C7.94933 14.5819 8.39105 14.2714 8.45475 13.8706C8.45906 13.8437 8.46168 13.8166 8.46259 13.7891C8.47516 14.2283 8.93982 14.5819 9.51183 14.5819H9.76168C10.3341 14.5819 10.7989 14.2283 10.8112 13.7888C10.8236 14.2283 11.2882 14.5819 11.8606 14.5819H12.1105C12.6838 14.5819 13.149 14.2272 13.16 13.7867C13.1709 14.2272 13.6363 14.5819 14.2095 14.5819H14.4594C15.0326 14.5819 15.4975 14.2274 15.5088 13.7872C15.52 14.2274 15.985 14.5819 16.5581 14.5819H16.808C17.3814 14.5819 17.8464 14.2272 17.8573 13.7867C17.8683 14.2272 18.3338 14.5819 18.9068 14.5819H19.1568C19.7303 14.5819 20.1954 14.227 20.2062 13.7864C20.2169 14.227 20.6822 14.5819 21.2556 14.5819H21.5055C22.0676 14.5819 22.5248 14.2412 22.5532 13.813C22.5535 13.8167 22.5535 13.8207 22.554 13.8245V13.8014C22.5542 13.7963 22.5546 13.7914 22.555 13.7865C22.5657 14.2271 23.031 14.582 23.6043 14.582H23.7785V10.7793H7.1543V10.7793Z" fill="#D5D8D8"/>
<path d="M9.14453 13.9082V22.6832H9.22524L21.755 13.9082H9.14453Z" fill="#F6B229"/>
<path d="M9.2251 22.6832H21.7888V13.9082H21.7549L9.2251 22.6832Z" fill="#F6B229"/>
<path d="M15.7676 7.34462V6.61523H13.4209V8.1946V8.76582H13.4224V12.6124C13.4224 13.0602 13.8929 13.4231 14.4729 13.4231H14.7228C15.303 13.4231 15.7732 13.0602 15.7732 12.6124V7.4291C15.7732 7.40069 15.7713 7.37257 15.7676 7.34462Z" fill="#F6B229"/>
<path d="M18.121 7.40695V6.61523H15.7681V8.74288H15.7716V12.6124C15.7716 13.0602 16.2419 13.4231 16.822 13.4231H17.0719C17.6522 13.4231 18.1223 13.0602 18.1223 12.6124V7.4291C18.1223 7.42171 18.1211 7.41442 18.121 7.40695Z" fill="white"/>
<path d="M20.4699 7.4109V6.61523H18.1209V7.41995C18.1207 7.4232 18.1201 7.42603 18.1201 7.4291V12.6124C18.1201 13.0602 18.5906 13.4231 19.1706 13.4231H19.4206C20.0008 13.4231 20.471 13.0602 20.471 12.6124V7.4291C20.471 7.42305 20.47 7.41704 20.4699 7.4109Z" fill="#F6B229"/>
<path d="M11.0799 6.61523H9.63231C9.62062 6.61748 9.60959 6.6207 9.59799 6.62295C9.27312 6.63877 8.98105 6.69701 8.71842 6.78892V7.06298C7.98384 7.72253 7.88867 8.81946 7.88867 8.81946L8.71842 8.81144V12.7119C8.72277 12.685 8.72535 12.658 8.72629 12.6305C8.73887 13.0697 9.20353 13.4231 9.77551 13.4231H10.0254C10.6055 13.4231 11.076 13.0602 11.076 12.6123V8.78854H11.0799V6.61523Z" fill="#F6B229"/>
<path d="M8.46253 6.89063C6.32395 7.89051 6.37896 11.2895 6.37896 11.2895C6.37896 11.2895 6.3778 11.2916 6.37646 11.2953V12.6106C6.37646 13.0584 6.84678 13.4213 7.42717 13.4213H7.6768C8.21308 13.4213 8.65481 13.1109 8.71848 12.7101V6.78711C8.63011 6.81803 8.54454 6.85233 8.46253 6.89063Z" fill="white"/>
<path d="M22.8195 8.67367L23.1045 8.67091L22.8195 8.2482V7.42848C22.8195 7.41824 22.818 7.40837 22.8176 7.39829V6.78648C22.5109 6.67953 22.1647 6.61847 21.7724 6.61781C21.7714 6.61781 21.7702 6.61781 21.7691 6.61781H21.7198L21.717 6.61328L20.4696 6.61462V7.41539C20.4696 7.41988 20.4688 7.42416 20.4688 7.42848V12.6118C20.4688 13.0596 20.939 13.4225 21.5192 13.4225H21.7691C22.3311 13.4225 22.7884 13.0819 22.8167 12.6537C22.8171 12.6574 22.8171 12.6614 22.8176 12.6652V12.6421C22.818 12.6318 22.8195 12.6219 22.8195 12.6117V8.67367H22.8195Z" fill="white"/>
<path d="M22.8174 12.6133V12.6657C22.8531 13.0885 23.3074 13.423 23.8645 13.423H23.8677C23.2881 13.423 22.8181 13.0607 22.8174 12.6133Z" fill="#CC3131"/>
<path d="M25.1623 11.2913C25.1623 11.2913 25.2171 7.89471 23.0809 6.89345C23.08 6.89309 23.0792 6.8927 23.0786 6.89242C22.995 6.8533 22.9077 6.81843 22.8174 6.78711V7.42813V12.6134C22.8181 13.0608 23.2881 13.4232 23.8676 13.4232H24.1141C24.6943 13.4232 25.1645 13.0602 25.1645 12.6124V11.2972C25.1631 11.2934 25.1623 11.2913 25.1623 11.2913Z" fill="#F6B229"/>
<path d="M13.4212 7.37366V6.61523H11.0799V7.34331C11.0761 7.37169 11.0737 7.40009 11.0737 7.4291V12.6124C11.0737 13.0602 11.5442 13.4231 12.1243 13.4231H12.3742C12.9544 13.4231 13.4247 13.0602 13.4247 12.6124V7.4291C13.4248 7.41041 13.4227 7.39213 13.4212 7.37366Z" fill="white"/>
<path d="M24.3797 24.8098C24.3797 25.2009 24.0626 25.518 23.6714 25.518H7.26144C6.87035 25.518 6.55322 25.2009 6.55322 24.8098C6.55322 24.4187 6.87035 24.1016 7.26144 24.1016H23.6714C24.0625 24.1016 24.3797 24.4187 24.3797 24.8098Z" fill="#F98105"/>
</svg>
