<svg width="18" height="20" viewBox="0 0 18 20" fill="none" xmlns="http://www.w3.org/2000/svg">
<path fill-rule="evenodd" clip-rule="evenodd" d="M0 2.99996C0 2.20432 0.316067 1.44127 0.878669 0.878669C1.44127 0.316067 2.20432 0 2.99996 0H14.9998C15.7954 0 16.5585 0.316067 17.1211 0.878669C17.6837 1.44127 17.9998 2.20432 17.9998 2.99996V18.9998C17.9997 19.1881 17.9463 19.3726 17.846 19.532C17.7456 19.6913 17.6023 19.8191 17.4325 19.9006C17.2627 19.9822 17.0734 20.014 16.8862 19.9927C16.6991 19.9713 16.5218 19.8975 16.3748 19.7798L14.4458 18.2378L12.0548 19.8318C11.8782 19.9496 11.6687 20.0082 11.4565 19.9991C11.2444 19.9899 11.0407 19.9134 10.8749 19.7808L8.99989 18.2798L7.12491 19.7798C6.95912 19.9124 6.7554 19.9889 6.54325 19.9981C6.3311 20.0072 6.12154 19.9486 5.94492 19.8307L3.55395 18.2368L1.62398 19.7798C1.47694 19.8972 1.29976 19.9707 1.11279 19.9919C0.925824 20.0132 0.736662 19.9812 0.567044 19.8997C0.397426 19.8183 0.254236 19.6906 0.153928 19.5314C0.0536212 19.3722 0.000267862 19.1879 0 18.9998V2.99996ZM4.99994 3.99995C4.73472 3.99995 4.48037 4.10531 4.29284 4.29284C4.1053 4.48037 3.99995 4.73472 3.99995 4.99994C3.99995 5.26515 4.1053 5.5195 4.29284 5.70703C4.48037 5.89457 4.73472 5.99992 4.99994 5.99992H12.9998C13.265 5.99992 13.5194 5.89457 13.7069 5.70703C13.8945 5.5195 13.9998 5.26515 13.9998 4.99994C13.9998 4.73472 13.8945 4.48037 13.7069 4.29284C13.5194 4.10531 13.265 3.99995 12.9998 3.99995H4.99994ZM4.99994 7.9999C4.73472 7.9999 4.48037 8.10526 4.29284 8.29279C4.1053 8.48032 3.99995 8.73467 3.99995 8.99989C3.99995 9.2651 4.1053 9.51945 4.29284 9.70698C4.48037 9.89452 4.73472 9.99987 4.99994 9.99987H12.9998C13.265 9.99987 13.5194 9.89452 13.7069 9.70698C13.8945 9.51945 13.9998 9.2651 13.9998 8.99989C13.9998 8.73467 13.8945 8.48032 13.7069 8.29279C13.5194 8.10526 13.265 7.9999 12.9998 7.9999H4.99994ZM4.99994 11.9998C4.73472 11.9998 4.48037 12.1052 4.29284 12.2927C4.1053 12.4803 3.99995 12.7346 3.99995 12.9998C3.99995 13.265 4.1053 13.5194 4.29284 13.7069C4.48037 13.8945 4.73472 13.9998 4.99994 13.9998H8.99989C9.2651 13.9998 9.51945 13.8945 9.70698 13.7069C9.89452 13.5194 9.99987 13.265 9.99987 12.9998C9.99987 12.7346 9.89452 12.4803 9.70698 12.2927C9.51945 12.1052 9.2651 11.9998 8.99989 11.9998H4.99994Z" fill="#DC4F72"/>
<mask id="mask0_421_3480" style="mask-type:alpha" maskUnits="userSpaceOnUse" x="9" y="0" width="9" height="21">
<rect x="9" width="8.99989" height="20.9997" fill="#C4C4C4"/>
</mask>
<g mask="url(#mask0_421_3480)">
<path fill-rule="evenodd" clip-rule="evenodd" d="M0 2.99996C0 2.20432 0.316067 1.44127 0.878669 0.878669C1.44127 0.316067 2.20432 0 2.99996 0H14.9998C15.7954 0 16.5585 0.316067 17.1211 0.878669C17.6837 1.44127 17.9998 2.20432 17.9998 2.99996V18.9998C17.9997 19.1881 17.9463 19.3726 17.846 19.532C17.7456 19.6913 17.6023 19.8191 17.4325 19.9006C17.2627 19.9822 17.0734 20.014 16.8862 19.9927C16.6991 19.9713 16.5218 19.8975 16.3748 19.7798L14.4458 18.2378L12.0548 19.8318C11.8782 19.9496 11.6687 20.0082 11.4565 19.9991C11.2444 19.9899 11.0407 19.9134 10.8749 19.7808L8.99989 18.2798L7.12491 19.7798C6.95912 19.9124 6.7554 19.9889 6.54325 19.9981C6.3311 20.0072 6.12154 19.9486 5.94492 19.8307L3.55395 18.2368L1.62398 19.7798C1.47694 19.8972 1.29976 19.9707 1.11279 19.9919C0.925824 20.0132 0.736662 19.9812 0.567044 19.8997C0.397426 19.8183 0.254236 19.6906 0.153928 19.5314C0.0536212 19.3722 0.000267862 19.1879 0 18.9998V2.99996ZM4.99994 3.99995C4.73472 3.99995 4.48037 4.10531 4.29284 4.29284C4.10531 4.48037 3.99995 4.73472 3.99995 4.99994C3.99995 5.26515 4.10531 5.5195 4.29284 5.70703C4.48037 5.89457 4.73472 5.99992 4.99994 5.99992H12.9998C13.265 5.99992 13.5194 5.89457 13.7069 5.70703C13.8945 5.5195 13.9998 5.26515 13.9998 4.99994C13.9998 4.73472 13.8945 4.48037 13.7069 4.29284C13.5194 4.10531 13.265 3.99995 12.9998 3.99995H4.99994ZM4.99994 7.9999C4.73472 7.9999 4.48037 8.10526 4.29284 8.29279C4.10531 8.48032 3.99995 8.73467 3.99995 8.99989C3.99995 9.2651 4.10531 9.51945 4.29284 9.70698C4.48037 9.89452 4.73472 9.99987 4.99994 9.99987H12.9998C13.265 9.99987 13.5194 9.89452 13.7069 9.70698C13.8945 9.51945 13.9998 9.2651 13.9998 8.99989C13.9998 8.73467 13.8945 8.48032 13.7069 8.29279C13.5194 8.10526 13.265 7.9999 12.9998 7.9999H4.99994ZM4.99994 11.9998C4.73472 11.9998 4.48037 12.1052 4.29284 12.2927C4.10531 12.4803 3.99995 12.7346 3.99995 12.9998C3.99995 13.265 4.10531 13.5194 4.29284 13.7069C4.48037 13.8945 4.73472 13.9998 4.99994 13.9998H8.99989C9.2651 13.9998 9.51945 13.8945 9.70698 13.7069C9.89452 13.5194 9.99987 13.265 9.99987 12.9998C9.99987 12.7346 9.89452 12.4803 9.70698 12.2927C9.51945 12.1052 9.2651 11.9998 8.99989 11.9998H4.99994Z" fill="#DC4F72"/>
</g>
</svg>
