<svg width="14" height="13" viewBox="0 0 14 13" fill="none" xmlns="http://www.w3.org/2000/svg">
<path d="M11.7673 3.33366C11.651 3.13214 11.4839 2.96458 11.2828 2.84763C11.0816 2.73067 10.8533 2.6684 10.6207 2.66699H9.00065V1.33366C9.00065 1.15685 8.93041 0.987279 8.80539 0.862254C8.68036 0.73723 8.5108 0.666992 8.33398 0.666992H1.66732C1.3137 0.666992 0.974557 0.807468 0.724509 1.05752C0.47446 1.30756 0.333984 1.6467 0.333984 2.00033V8.66699C0.334224 8.90081 0.395946 9.13045 0.512959 9.33288C0.629971 9.53531 0.798159 9.70342 1.00065 9.82033C0.976782 10.4392 1.19972 11.0421 1.62043 11.4966C2.04114 11.9511 2.62515 12.2198 3.24398 12.2437C3.86282 12.2675 4.4658 12.0446 4.92026 11.6239C5.37472 11.2032 5.64345 10.6192 5.66732 10.0003H7.73398C7.8077 10.5581 8.08162 11.0701 8.50474 11.441C8.92786 11.8119 9.47133 12.0164 10.034 12.0164C10.5966 12.0164 11.1401 11.8119 11.5632 11.441C11.9863 11.0701 12.2603 10.5581 12.334 10.0003C12.6876 10.0003 13.0267 9.85985 13.2768 9.6098C13.5268 9.35975 13.6673 9.02061 13.6673 8.66699V6.66699C13.6663 6.54537 13.6341 6.42603 13.574 6.32033L11.7673 3.33366ZM9.00065 4.00033H10.6207L11.8207 6.00033H9.00065V4.00033ZM3.33398 10.667C3.1362 10.667 2.94286 10.6083 2.77841 10.4985C2.61397 10.3886 2.48579 10.2324 2.4101 10.0497C2.33442 9.86695 2.31461 9.66588 2.3532 9.4719C2.39178 9.27792 2.48703 9.09974 2.62688 8.95989C2.76673 8.82003 2.94491 8.72479 3.13889 8.68621C3.33288 8.64762 3.53394 8.66743 3.71667 8.74311C3.89939 8.8188 4.05557 8.94697 4.16545 9.11142C4.27534 9.27587 4.33398 9.46921 4.33398 9.66699C4.33398 9.93221 4.22863 10.1866 4.04109 10.3741C3.85355 10.5616 3.5992 10.667 3.33398 10.667ZM10.0007 10.667C9.80287 10.667 9.60953 10.6083 9.44508 10.4985C9.28063 10.3886 9.15246 10.2324 9.07677 10.0497C9.00108 9.86695 8.98128 9.66588 9.01987 9.4719C9.05845 9.27792 9.15369 9.09974 9.29354 8.95989C9.4334 8.82003 9.61158 8.72479 9.80556 8.68621C9.99954 8.64762 10.2006 8.66743 10.3833 8.74311C10.5661 8.8188 10.7222 8.94697 10.8321 9.11142C10.942 9.27587 11.0007 9.46921 11.0007 9.66699C11.0007 9.93221 10.8953 10.1866 10.7078 10.3741C10.5202 10.5616 10.2659 10.667 10.0007 10.667Z" fill="#00AE8F"/>
</svg>
