<svg width="24" height="24" viewBox="0 0 24 24" fill="none" xmlns="http://www.w3.org/2000/svg">
<path d="M21 5H20H18H6H4H3C2.447 5 2 5.447 2 6V7V8.938V10H2.893C3.889 10 4.813 10.681 4.973 11.664C5.177 12.917 4.215 14 3 14H2V15.062V17V18C2 18.553 2.447 19 3 19H4H6H18H20H21C21.553 19 22 18.553 22 18V17V15.062V14C22 14 21.553 14 21 14C19.785 14 18.823 12.917 19.027 11.664C19.187 10.681 20.111 10 21.107 10H22V8.938V7V6C22 5.447 21.553 5 21 5ZM11 17H9V15H11V17ZM11 13H9V11H11V13ZM11 9H9V7H11V9Z" fill="#DC4F72"/>
</svg>
