<svg width="15" height="15" viewBox="0 0 15 15" fill="none" xmlns="http://www.w3.org/2000/svg">
<path d="M6.52344 0.441534L6.21094 0.9828L5.58594 2.06533L1.83594 8.56052L1.21094 9.64305L0.898437 10.1843C0.725625 10.4836 0.827883 10.8653 1.1272 11.0381L1.66847 11.3506L2.71744 11.9562L3.29227 12.2881L3.57133 11.8047C3.88258 11.2656 4.53993 10.9783 5.122 11.1989C5.86395 11.48 6.14952 12.3392 5.76983 12.9968L5.45733 13.5381L6.03216 13.87L7.08113 14.4756L7.6224 14.7881C7.92172 14.9609 8.30335 14.8586 8.47616 14.5593L8.78866 14.0181L9.41366 12.9355L13.1637 6.44033L13.7887 5.3578L14.1012 4.81653C14.274 4.51721 14.1717 4.13558 13.8724 3.96277L13.3311 3.65027L12.2822 3.04464L11.7073 2.71277C11.7073 2.71277 11.5676 2.95471 11.3948 3.25403C11.0151 3.91167 10.1283 4.09393 9.51387 3.59195C9.03181 3.19816 8.95195 2.48522 9.2632 1.94612L9.54227 1.46277L8.96744 1.13089L7.91847 0.525268L7.3772 0.212768C7.07788 0.0399554 6.69625 0.142214 6.52344 0.441534ZM9.89363 9.60419L9.26863 10.6867L8.1861 10.0617L8.8111 8.97919L9.89363 9.60419ZM7.72857 8.35419L7.10357 9.43672L6.02103 8.81172L6.64603 7.72919L7.72857 8.35419ZM5.5635 7.10419L4.9385 8.18672L3.85597 7.56172L4.48097 6.47919L5.5635 7.10419Z" fill="#F08C32"/>
</svg>
