<svg width="15" height="15" viewBox="0 0 15 15" fill="none" xmlns="http://www.w3.org/2000/svg">
<g clip-path="url(#clip0_2_14601)">
<path d="M6.52368 0.441045L6.21118 0.982311L5.58618 2.06484L1.83618 8.56003L1.21118 9.64257L0.898682 10.1838C0.725869 10.4832 0.828128 10.8648 1.12745 11.0376L1.66871 11.3501L2.71769 11.9557L3.29251 12.2876L3.57157 11.8042C3.88282 11.2651 4.54018 10.9778 5.12224 11.1984C5.8642 11.4796 6.14976 12.3387 5.77008 12.9963L5.45758 13.5376L6.0324 13.8695L7.08137 14.4751L7.62264 14.7876C7.92196 14.9604 8.30359 14.8582 8.47641 14.5588L8.78891 14.0176L9.41391 12.935L13.1639 6.43984L13.7889 5.35731L14.1014 4.81605C14.2742 4.51673 14.172 4.13509 13.8726 3.96228L13.3314 3.64978L12.2824 3.04416L11.7076 2.71228C11.7076 2.71228 11.5679 2.95423 11.3951 3.25355C11.0154 3.91118 10.1286 4.09344 9.51412 3.59146C9.03205 3.19767 8.9522 2.48473 9.26345 1.94563L9.54251 1.46228L8.96769 1.1304L7.91871 0.52478L7.37745 0.21228C7.07813 0.0394671 6.69649 0.141725 6.52368 0.441045ZM9.89387 9.60371L9.26887 10.6862L8.18634 10.0612L8.81134 8.9787L9.89387 9.60371ZM7.72881 8.3537L7.10381 9.43624L6.02128 8.81124L6.64628 7.7287L7.72881 8.3537ZM5.56375 7.1037L4.93875 8.18624L3.85621 7.56124L4.48121 6.4787L5.56375 7.1037Z" fill="#DC4F72"/>
</g>
<defs>
<clipPath id="clip0_2_14601">
<rect width="15" height="15" fill="white"/>
</clipPath>
</defs>
</svg>
