<svg width="32" height="32" viewBox="0 0 32 32" fill="none" xmlns="http://www.w3.org/2000/svg">
<ellipse cx="15.8226" cy="16.059" rx="14.7601" ry="14.7601" fill="#FEE2F6"/>
<path d="M22.555 13.7853C22.5546 13.7902 22.5542 13.7951 22.554 13.8002V13.8233C22.5535 13.8195 22.5535 13.8155 22.5532 13.8118C22.5248 14.24 22.0676 14.5807 21.5055 14.5807H21.2557C20.6822 14.5807 20.2169 14.2258 20.2062 13.7852C20.1954 14.2258 19.7303 14.5807 19.1568 14.5807H18.9068C18.3338 14.5807 17.8683 14.226 17.8573 13.7855C17.8464 14.226 17.3814 14.5807 16.808 14.5807H16.5581C15.985 14.5807 15.52 14.2262 15.5088 13.786C15.4975 14.2262 15.0326 14.5807 14.4594 14.5807H14.2095C13.6363 14.5807 13.171 14.226 13.16 13.7855C13.149 14.226 12.6838 14.5807 12.1105 14.5807H11.8606C11.2882 14.5807 10.8235 14.2271 10.8112 13.7876C10.7989 14.2271 10.3341 14.5807 9.76167 14.5807H9.51183C8.93983 14.5807 8.47517 14.2271 8.46259 13.7879C8.46165 13.8154 8.45906 13.8425 8.45475 13.8694C8.39105 14.2701 7.94933 14.5807 7.41307 14.5807H7.16341C7.16034 14.5807 7.1574 14.5803 7.1543 14.5803V24.3616H23.7784V14.5807H23.6043C23.031 14.5807 22.5657 14.2259 22.555 13.7853Z" fill="white"/>
<path d="M7.1543 10.7783V14.5805C7.1574 14.5805 7.16034 14.5809 7.16341 14.5809H7.41307C7.94933 14.5809 8.39105 14.2704 8.45475 13.8697C8.45906 13.8427 8.46168 13.8156 8.46259 13.7882C8.47516 14.2273 8.93982 14.5809 9.51183 14.5809H9.76168C10.3341 14.5809 10.7989 14.2273 10.8112 13.7878C10.8236 14.2273 11.2882 14.5809 11.8606 14.5809H12.1105C12.6838 14.5809 13.149 14.2263 13.16 13.7857C13.1709 14.2263 13.6363 14.5809 14.2095 14.5809H14.4594C15.0326 14.5809 15.4975 14.2264 15.5088 13.7862C15.52 14.2264 15.985 14.5809 16.5581 14.5809H16.808C17.3814 14.5809 17.8464 14.2263 17.8573 13.7857C17.8683 14.2263 18.3338 14.5809 18.9068 14.5809H19.1568C19.7303 14.5809 20.1954 14.226 20.2062 13.7854C20.2169 14.226 20.6822 14.5809 21.2556 14.5809H21.5055C22.0676 14.5809 22.5248 14.2402 22.5532 13.812C22.5535 13.8157 22.5535 13.8198 22.554 13.8236V13.8004C22.5542 13.7954 22.5546 13.7904 22.555 13.7855C22.5657 14.2262 23.031 14.581 23.6043 14.581H23.7785V10.7783H7.1543V10.7783Z" fill="#D5D8D8"/>
<path d="M9.14453 13.9072V22.6823H9.22524L21.755 13.9072H9.14453Z" fill="#DC4F72"/>
<path d="M9.2251 22.6823H21.7888V13.9072H21.7549L9.2251 22.6823Z" fill="#DC4F72"/>
<path d="M15.7676 7.34364V6.61426H13.4209V8.19362V8.76484H13.4224V12.6114C13.4224 13.0592 13.8929 13.4222 14.4729 13.4222H14.7228C15.303 13.4222 15.7732 13.0592 15.7732 12.6114V7.42812C15.7732 7.39972 15.7713 7.37159 15.7676 7.34364Z" fill="#DC4F72"/>
<path d="M18.121 7.40597V6.61426H15.7681V8.74191H15.7716V12.6114C15.7716 13.0592 16.2419 13.4222 16.822 13.4222H17.0719C17.6522 13.4222 18.1223 13.0592 18.1223 12.6114V7.42812C18.1223 7.42074 18.1211 7.41345 18.121 7.40597Z" fill="white"/>
<path d="M20.4699 7.40993V6.61426H18.1209V7.41897C18.1207 7.42222 18.1201 7.42505 18.1201 7.42812V12.6114C18.1201 13.0592 18.5906 13.4222 19.1706 13.4222H19.4206C20.0008 13.4222 20.471 13.0592 20.471 12.6114V7.42812C20.471 7.42207 20.47 7.41606 20.4699 7.40993Z" fill="#DC4F72"/>
<path d="M11.0799 6.61426H9.63231C9.62062 6.61651 9.60959 6.61972 9.59799 6.62197C9.27312 6.6378 8.98105 6.69603 8.71842 6.78795V7.062C7.98384 7.72155 7.88867 8.81848 7.88867 8.81848L8.71842 8.81047V12.7109C8.72277 12.684 8.72535 12.657 8.72629 12.6295C8.73887 13.0687 9.20353 13.4221 9.77551 13.4221H10.0254C10.6055 13.4221 11.076 13.0592 11.076 12.6114V8.78756H11.0799V6.61426Z" fill="#DC4F72"/>
<path d="M8.46253 6.89063C6.32395 7.89051 6.37896 11.2895 6.37896 11.2895C6.37896 11.2895 6.3778 11.2916 6.37646 11.2953V12.6106C6.37646 13.0584 6.84678 13.4213 7.42717 13.4213H7.6768C8.21308 13.4213 8.65481 13.1109 8.71848 12.7101V6.78711C8.63011 6.81803 8.54454 6.85233 8.46253 6.89063Z" fill="white"/>
<path d="M22.8195 8.6727L23.1045 8.66994L22.8195 8.24723V7.4275C22.8195 7.41726 22.818 7.40739 22.8176 7.39731V6.78551C22.5109 6.67855 22.1647 6.6175 21.7724 6.61683C21.7714 6.61683 21.7702 6.61683 21.7691 6.61683H21.7198L21.717 6.6123L20.4696 6.61364V7.41441C20.4696 7.41891 20.4688 7.42319 20.4688 7.4275V12.6108C20.4688 13.0586 20.939 13.4215 21.5192 13.4215H21.7691C22.3311 13.4215 22.7884 13.081 22.8167 12.6527C22.8171 12.6564 22.8171 12.6604 22.8176 12.6642V12.6411C22.818 12.6309 22.8195 12.6209 22.8195 12.6108V8.6727H22.8195Z" fill="white"/>
<path d="M22.8174 12.6113V12.6637C22.8531 13.0866 23.3074 13.4211 23.8645 13.4211H23.8677C23.2881 13.4211 22.8181 13.0587 22.8174 12.6113Z" fill="#CC3131"/>
<path d="M25.1623 11.2903C25.1623 11.2903 25.2171 7.89373 23.0809 6.89248C23.08 6.89211 23.0792 6.89172 23.0786 6.89145C22.995 6.85232 22.9077 6.81745 22.8174 6.78613V7.42716V12.6125C22.8181 13.0599 23.2881 13.4222 23.8676 13.4222H24.1141C24.6943 13.4222 25.1645 13.0593 25.1645 12.6114V11.2962C25.1631 11.2924 25.1623 11.2903 25.1623 11.2903Z" fill="#DC4F72"/>
<path d="M22.8174 12.61C22.8174 12.6103 22.8176 12.6108 22.8176 12.6111V7.42578C22.8176 7.42615 22.8174 7.42642 22.8174 7.42675V12.61Z" fill="#CC3131"/>
<path d="M13.4212 7.37268V6.61426H11.0799V7.34234C11.0761 7.37071 11.0737 7.39911 11.0737 7.42812V12.6114C11.0737 13.0592 11.5442 13.4222 12.1243 13.4222H12.3742C12.9544 13.4222 13.4247 13.0592 13.4247 12.6114V7.42812C13.4248 7.40944 13.4227 7.39115 13.4212 7.37268Z" fill="white"/>
<path d="M24.3797 24.8079C24.3797 25.1989 24.0626 25.516 23.6714 25.516H7.26144C6.87035 25.516 6.55322 25.1989 6.55322 24.8079C6.55322 24.4167 6.87035 24.0996 7.26144 24.0996H23.6714C24.0625 24.0996 24.3797 24.4167 24.3797 24.8079Z" fill="#DC4F72"/>
</svg>
