<?xml version="1.0" standalone="no"?>
<!DOCTYPE svg PUBLIC "-//W3C//DTD SVG 20010904//EN"
 "http://www.w3.org/TR/2001/REC-SVG-20010904/DTD/svg10.dtd">
<svg version="1.0" xmlns="http://www.w3.org/2000/svg"
 width="514.000000pt" height="514.000000pt" viewBox="0 0 514.000000 514.000000"
 preserveAspectRatio="xMidYMid meet">
<metadata>
Created by potrace 1.14, written by Peter Selinger 2001-2017
</metadata>
<g transform="translate(0.000000,514.000000) scale(0.100000,-0.100000)"
fill="#000000" stroke="none">
<path d="M2429 5135 c-2 -1 -40 -6 -84 -10 -44 -3 -89 -8 -100 -10 -11 -2 -42
-7 -70 -10 -113 -14 -226 -40 -375 -89 -613 -199 -1096 -585 -1439 -1149 -158
-259 -292 -627 -317 -868 -3 -35 -12 -100 -19 -144 -12 -71 -12 -259 -1 -365
2 -20 6 -76 10 -125 22 -296 32 -358 83 -525 65 -213 201 -509 312 -678 336
-510 916 -928 1491 -1074 230 -58 359 -72 655 -73 200 0 283 5 355 20 14 3 68
12 120 20 83 14 229 54 370 102 284 97 522 230 790 442 156 123 332 313 316
340 -4 5 -161 9 -390 9 -432 -1 -403 4 -533 -81 -96 -63 -347 -179 -414 -192
-9 -2 -47 -12 -85 -23 -263 -77 -591 -97 -844 -52 -293 53 -509 136 -755 293
-60 38 -112 72 -115 76 -3 3 -23 19 -45 35 -72 53 -166 136 -210 187 -17 19
-62 71 -101 115 -168 191 -327 500 -389 757 -27 107 -29 120 -50 257 -13 80
-14 435 -2 500 3 14 8 45 12 70 30 202 145 529 239 680 183 295 378 502 636
673 210 139 516 261 738 293 20 3 43 7 50 9 53 18 379 26 502 12 320 -35 627
-143 885 -309 39 -25 81 -49 95 -53 28 -9 777 -8 791 1 12 7 -8 34 -74 104
-156 162 -381 350 -509 425 -9 6 -48 29 -85 51 -123 75 -205 119 -300 160 -97
42 -376 129 -473 148 -14 2 -47 9 -75 14 -52 11 -109 18 -210 27 -74 7 -382
15 -386 10z"/>
<path d="M4240 3679 c0 -6 19 -43 43 -82 46 -78 101 -189 137 -277 77 -193 92
-245 115 -400 31 -212 37 -339 23 -530 -6 -92 -65 -360 -104 -477 -28 -86
-100 -248 -125 -285 -11 -14 -19 -29 -19 -33 0 -3 -13 -26 -30 -50 -16 -24
-34 -55 -40 -69 -8 -23 -7 -26 13 -26 63 -1 520 -1 568 -1 l56 1 36 78 c50
108 56 125 82 222 13 47 32 119 44 160 11 41 27 102 36 135 43 160 53 263 53
515 -2 366 -29 549 -114 780 -46 123 -104 276 -120 318 l-13 32 -320 0 c-221
0 -321 -3 -321 -11z"/>
<path d="M1520 3663 c-21 -11 -42 -33 -53 -56 -18 -35 -19 -87 -21 -975 -1
-515 1 -972 4 -1014 5 -71 8 -80 39 -112 25 -26 46 -37 80 -42 59 -9 1678 -9
1751 0 183 23 300 76 409 185 206 205 251 493 118 759 -32 66 -107 152 -132
152 -30 0 -22 19 34 78 104 110 149 226 149 384 -1 302 -169 531 -463 629
l-70 24 -905 3 c-849 2 -907 1 -940 -15z m1666 -569 c76 -36 110 -145 69 -224
-15 -29 -63 -70 -100 -85 -11 -5 -262 -9 -557 -10 l-538 -1 0 161 c0 89 3 165
7 168 3 4 249 7 546 7 477 0 543 -2 573 -16z m-56 -728 c49 -11 117 -52 137
-82 23 -35 20 -134 -5 -182 -30 -58 -68 -76 -192 -89 -70 -7 -952 -8 -985 0
-19 4 -20 13 -23 173 -1 92 -1 173 2 179 4 12 1010 13 1066 1z"/>
</g>
</svg>
