<svg width="17" height="24" viewBox="0 0 17 24" fill="none" xmlns="http://www.w3.org/2000/svg">
<path d="M4.3208 12.8866C5.01246 17.3872 7.94844 20.2131 11.767 20.3397C16.0713 20.4824 18.6828 19.1927 20.1193 15.7849C21.739 11.9428 4.3208 12.8866 4.3208 12.8866Z" fill="#3C8235"/>
<path d="M18.3968 18.6412C17.9877 18.9776 17.1087 18.9755 16.5842 19.0079C16.0256 19.0427 15.4621 18.7689 14.9058 18.8227C14.035 18.9067 13.1776 19.7613 12.4083 19.2584C11.8723 18.9081 11.7699 18.0883 11.29 17.6504C10.6062 17.0264 10.1007 17.567 9.47103 16.8792C8.71913 16.0579 9.38649 15.0005 8.74061 14.0815C8.37105 13.5558 7.62339 13.1752 7.70603 12.1494C7.74113 11.7153 8.31083 11.0884 8.44829 10.6843C8.62473 10.1648 8.40215 9.82038 8.47471 9.26748C8.56991 8.54186 8.79495 8.15224 10.0832 7.72284C10.8456 7.46858 11.087 7.40658 11.2763 6.567C11.5132 5.51564 11.9543 5.42596 12.3667 5.4445C12.8949 5.46822 13.1117 5.6307 13.6189 5.61414C14.3881 5.5889 14.6339 4.75858 15.4359 4.96718C16.3033 5.19304 16.3978 5.89222 17.1217 6.33116C17.5267 6.57662 18.0149 6.5198 18.4468 6.71516C18.9942 6.9626 19.4824 7.36504 19.8296 7.89248C20.5111 8.92824 20.8073 9.80738 20.9846 11.0337C21.4254 14.086 20.4218 16.9754 18.3968 18.6412Z" fill="#006129"/>
<path d="M10.2561 4.31871C9.76744 4.52309 9.25784 4.73405 8.95756 5.16523C8.63766 5.62445 8.57874 6.24817 8.24382 6.69565C7.71954 7.39601 6.54386 7.68445 6.5738 8.60305C6.59458 9.24293 7.24188 9.75653 7.36668 10.3941C7.54452 11.3026 6.8201 11.4536 7.08058 12.3489C7.39156 13.4181 8.64178 13.3972 9.0914 14.4267C9.3486 15.0156 9.28522 15.8521 10.2046 16.3146C10.5938 16.5101 11.4254 16.3491 11.8422 16.4417C12.3777 16.5607 12.5563 16.9299 13.0665 17.1552C13.7359 17.4509 14.1857 17.461 15.222 16.5835C15.8353 16.0641 16.0137 15.89 16.8294 16.1647C17.8508 16.5085 18.1566 16.1781 18.3551 15.8162C18.6093 15.3526 18.5831 15.0829 18.8608 14.6581C19.2819 14.014 20.1192 14.2355 20.3576 13.4418C20.6154 12.5833 20.067 12.1393 20.0682 11.2927C20.0688 10.819 20.3711 10.4315 20.4286 9.96091C20.5015 9.36467 20.2605 8.52087 19.9902 7.95023C19.4594 6.82973 18.638 5.58981 16.8066 4.52743C14.6882 3.29859 12.2441 3.48711 10.2561 4.31871Z" fill="#3C8235"/>
<path d="M5.80638 6.85032C6.11338 6.36514 6.48806 5.89215 7.00942 5.65161C7.56468 5.39545 8.2236 5.43243 8.77052 5.15891C9.62642 4.73091 10.222 3.57119 11.1631 3.74515C11.8186 3.86619 12.185 4.60951 12.8118 4.83679C13.7049 5.16067 14.0443 4.44189 14.903 4.84841C15.9283 5.33383 15.5902 6.61154 16.5394 7.23278C17.0825 7.58824 17.9624 7.65374 18.207 8.66778C18.3105 9.09708 17.9337 9.92409 17.9238 10.3656C17.9111 10.9329 18.2471 11.1734 18.3507 11.7312C18.4865 12.4633 18.3831 12.9258 17.2144 13.8509C16.523 14.3983 16.2979 14.5541 16.3751 15.4326C16.4714 16.5328 16.053 16.7947 15.6289 16.9416C15.0858 17.1298 14.814 17.0609 14.3049 17.2792C13.5332 17.6104 13.5499 18.5028 12.67 18.6233C11.7181 18.7536 11.3985 18.1226 10.5239 17.9917C10.0346 17.9185 9.55788 18.1678 9.05742 18.1533C8.42328 18.1351 7.79946 17.9451 7.27858 17.5792C6.25574 16.8606 5.39878 15.9171 4.85056 14.8019C3.76682 12.5971 4.28662 9.25192 5.80638 6.85032Z" fill="#6DAF44"/>
<path d="M12.4873 14.3711C12.6724 13.7425 12.3158 13.1681 12.128 12.5401C11.9234 11.8557 12.2684 10.9684 11.7385 10.4894C11.3794 10.1649 10.8007 10.2361 10.3981 9.9675C9.87547 9.61884 9.77673 8.789 9.19187 8.55927C8.59001 8.32271 8.00809 8.88688 7.44931 9.21242C6.92423 9.51822 6.32999 9.11228 5.79819 9.40622C5.09561 9.79468 4.59247 10.6378 4.29793 11.4419C4.21095 12.6636 4.37847 13.8413 4.85085 14.8021C5.39907 15.9175 6.25603 16.8609 7.27887 17.5795C7.80643 17.9501 8.41957 18.1336 9.04739 18.1522C9.11935 17.8026 9.18251 17.4617 9.54725 17.3358C10.0331 17.1681 10.6575 17.3519 11.0186 16.9861C11.3508 16.6494 11.2233 16.0709 11.4463 15.6538C11.7493 15.0869 12.3057 14.9876 12.4873 14.3711Z" fill="#8BC762"/>
<path d="M12.1243 6.21677C12.0432 6.27711 11.965 6.33943 11.8903 6.40647C11.8145 6.47151 11.7439 6.54267 11.6718 6.61097C11.6024 6.68222 11.5337 6.75406 11.4679 6.828C11.4055 6.90526 11.3383 6.97758 11.2788 7.05622C11.2205 7.13594 11.1574 7.2113 11.1035 7.29348C11.0505 7.37612 10.9954 7.45712 10.9444 7.54012L10.8014 7.7952C10.7553 7.88064 10.7185 7.97104 10.6767 8.05814C10.6328 8.14456 10.6021 8.2367 10.5697 8.3277C10.5388 8.41924 10.4997 8.5074 10.4781 8.60168L10.4023 8.8799C10.3784 8.97278 10.368 9.06914 10.35 9.16318C10.3345 9.25778 10.3137 9.35122 10.3112 9.44784L10.2906 9.73462C10.2778 9.8296 10.2892 9.92656 10.2879 10.0222L10.2924 10.3096L10.2943 10.4297L10.2034 10.5095L9.28539 11.3164C8.98183 11.5871 8.67637 11.8567 8.38499 12.1323L8.39533 11.7427C8.48829 11.8357 8.60429 11.9409 8.71617 12.0343C8.82979 12.1298 8.94753 12.2216 9.06833 12.309C9.18819 12.3978 9.31179 12.482 9.43717 12.5632C9.56255 12.6443 9.69145 12.7199 9.82139 12.7936C9.95169 12.8664 10.0841 12.9357 10.2189 12.9999C10.3541 13.063 10.4902 13.1246 10.6291 13.1792C10.6978 13.2084 10.7678 13.2341 10.8384 13.2586C10.9087 13.2836 10.9788 13.3097 11.0505 13.33C11.1921 13.3779 11.3365 13.4159 11.4812 13.4539C11.627 13.4855 11.7731 13.5199 11.9214 13.5403C12.069 13.5679 12.2186 13.5766 12.3679 13.595C12.5177 13.6041 12.6682 13.6165 12.819 13.6134C12.9701 13.6183 13.1206 13.6041 13.2723 13.5976C13.3479 13.5921 13.4233 13.5828 13.499 13.5755C13.5749 13.5687 13.6506 13.5602 13.7255 13.5463L13.9518 13.5092L14.1765 13.4609C14.3282 13.4329 14.4747 13.3861 14.6244 13.346C14.7741 13.3057 14.9184 13.2501 15.0685 13.205C14.9321 13.2794 14.7959 13.3573 14.6546 13.4247C14.5115 13.4878 14.3697 13.5572 14.2209 13.6087C14.1471 13.6362 14.0736 13.6655 13.9986 13.6898L13.7711 13.7569C13.6955 13.7809 13.6185 13.7994 13.5409 13.8164C13.4634 13.8336 13.3861 13.853 13.3081 13.8685C13.1509 13.892 12.9936 13.9213 12.834 13.9321C12.675 13.9507 12.5151 13.9535 12.3545 13.959C12.1944 13.9575 12.0332 13.9548 11.8734 13.9378C11.7127 13.9267 11.5539 13.9014 11.3945 13.8781C11.2362 13.8484 11.0777 13.8185 10.9218 13.7774C10.8432 13.7589 10.7664 13.7348 10.6893 13.7115C10.6118 13.689 10.5349 13.6649 10.4592 13.6373C10.1539 13.5337 9.85837 13.4029 9.57207 13.2556C9.42943 13.1808 9.28951 13.1011 9.15227 13.0169C9.01539 12.9322 8.87979 12.8452 8.74913 12.7509C8.61789 12.6573 8.48993 12.5591 8.36527 12.4558C8.23919 12.3502 8.12155 12.2502 7.99677 12.122L7.80273 11.9229L8.00699 11.7324C8.31197 11.4478 8.62093 11.1773 8.93509 10.9119C9.09169 10.7787 9.24899 10.647 9.40805 10.5172C9.56711 10.3871 9.72513 10.2572 9.88655 10.1288L9.79757 10.3287L9.80767 10.0137C9.81401 9.90886 9.80803 9.8039 9.82645 9.69954L9.87059 9.38728C9.88115 9.2829 9.91051 9.18126 9.93469 9.079C9.96123 8.97734 9.98047 8.87416 10.0135 8.7745L10.117 8.4774C10.1468 8.37702 10.2007 8.28544 10.2427 8.1899C10.2871 8.0954 10.33 8.00032 10.3858 7.9118C10.4396 7.82246 10.4883 7.73054 10.5461 7.64428L10.7257 7.39034C10.7903 7.30934 10.8585 7.23138 10.9244 7.1524C10.9911 7.07398 11.0665 7.00308 11.1368 6.92854C11.2076 6.85446 11.288 6.78954 11.3636 6.7211C11.4421 6.65546 11.523 6.59279 11.604 6.53127C11.7689 6.41187 11.9416 6.30293 12.1243 6.21677Z" fill="#FFECD2"/>
<path d="M6.99768 7.98825C6.88206 8.22501 6.78122 8.46661 6.6893 8.71019C6.59938 8.95473 6.51508 9.19983 6.44864 9.44929C6.4159 9.57409 6.38174 9.69793 6.35402 9.82319C6.3255 9.94833 6.30144 10.074 6.28112 10.1998C6.24216 10.4517 6.21092 10.7034 6.2034 10.9549C6.1938 11.2062 6.20822 11.4561 6.23768 11.7017C6.26892 11.9473 6.32232 12.1881 6.39686 12.4207C6.54736 12.8862 6.79246 13.3145 7.10896 13.6884L7.23444 13.8368L7.13608 14.0042L6.7158 14.7198L6.69868 14.4182C6.75432 14.4894 6.8318 14.5782 6.90482 14.6557C6.98006 14.7351 7.05848 14.8126 7.1396 14.8875C7.3023 15.037 7.47322 15.1792 7.6533 15.3094C7.8328 15.4406 8.01956 15.5625 8.21374 15.6726C8.31022 15.7288 8.4086 15.7818 8.5085 15.8323C8.6091 15.881 8.70973 15.9307 8.81361 15.973C8.91621 16.0187 9.02187 16.0564 9.12717 16.0965C9.23341 16.133 9.33907 16.1736 9.44789 16.2041C9.55565 16.2386 9.66541 16.2659 9.77565 16.2934C9.88611 16.319 9.99741 16.3427 10.1093 16.3655C10.2216 16.3848 10.3342 16.4072 10.4481 16.4196C10.5617 16.4355 10.676 16.4475 10.7911 16.4581C10.9061 16.4723 11.0215 16.4721 11.1376 16.481C11.2537 16.4874 11.3699 16.4857 11.4873 16.4911C11.373 16.5145 11.2578 16.5379 11.1417 16.5565C11.0255 16.5714 10.9087 16.5903 10.7911 16.5976L10.6143 16.6119C10.5552 16.6153 10.4962 16.6148 10.4369 16.6165C10.3183 16.6211 10.1999 16.6154 10.0807 16.6126C9.96191 16.6074 9.84275 16.5985 9.72431 16.5839C9.60587 16.5687 9.48707 16.5532 9.36945 16.5302C9.25075 16.5113 9.13443 16.4818 9.01681 16.4559C8.90117 16.4232 8.78473 16.3918 8.67085 16.3523C8.55568 16.3163 8.44334 16.2721 8.33064 16.2286C8.21854 16.1834 8.1076 16.1351 7.99818 16.0831C7.8896 16.0297 7.78194 15.9738 7.67676 15.9135C7.57146 15.8537 7.46698 15.7915 7.36626 15.7236C7.26472 15.657 7.16576 15.5862 7.06868 15.513C6.97136 15.44 6.87674 15.3631 6.78482 15.2826C6.69302 15.2021 6.6037 15.1184 6.51682 15.0311C6.4283 14.9414 6.3493 14.8577 6.2616 14.7458L6.1509 14.6046L6.24434 14.4441L6.66202 13.727L6.68912 14.0426C6.33026 13.6153 6.05331 13.1096 5.90353 12.5695C5.82733 12.3001 5.78099 12.0238 5.76267 11.7474C5.74213 11.4711 5.75411 11.1948 5.78439 10.9235C5.81573 10.6521 5.86433 10.3844 5.93829 10.1245C5.97433 9.99427 6.01401 9.86561 6.05803 9.73871C6.10241 9.61193 6.14784 9.48597 6.20126 9.36317C6.30738 9.11759 6.42218 8.87705 6.5558 8.64733C6.6886 8.41757 6.83204 8.19403 6.99768 7.98825Z" fill="#FFECD2"/>
<path d="M14.8121 8.9866C7.80906 8.62118 5.29769 15.543 5.29053 15.5631C5.56617 15.9772 5.88619 16.3617 6.24139 16.7129C7.7062 9.5859 14.8121 8.9866 14.8121 8.9866Z" fill="#FFECD2"/>
</svg>
